<?xml version="1.0" encoding="UTF-8" standalone="no"?>
<svg
   xmlns:sketch="http://www.bohemiancoding.com/sketch/ns"
   xmlns:dc="http://purl.org/dc/elements/1.1/"
   xmlns:cc="http://creativecommons.org/ns#"
   xmlns:rdf="http://www.w3.org/1999/02/22-rdf-syntax-ns#"
   xmlns:svg="http://www.w3.org/2000/svg"
   xmlns="http://www.w3.org/2000/svg"
   xmlns:sodipodi="http://sodipodi.sourceforge.net/DTD/sodipodi-0.dtd"
   xmlns:inkscape="http://www.inkscape.org/namespaces/inkscape"
   width="168"
   height="168"
   viewBox="0 0 168 168"
   version="1.1"
   id="svg2"
   inkscape:version="0.91 r13725"
   sodipodi:docname="build.svg">
  <metadata
     id="metadata15">
    <rdf:RDF>
      <cc:Work
         rdf:about="">
        <dc:format>image/svg+xml</dc:format>
        <dc:type
           rdf:resource="http://purl.org/dc/dcmitype/StillImage" />
        <dc:title>Slice 1</dc:title>
      </cc:Work>
    </rdf:RDF>
  </metadata>
  <sodipodi:namedview
     pagecolor="#ffffff"
     bordercolor="#666666"
     borderopacity="1"
     objecttolerance="10"
     gridtolerance="10"
     guidetolerance="10"
     inkscape:pageopacity="0"
     inkscape:pageshadow="2"
     inkscape:window-width="1366"
     inkscape:window-height="744"
     id="namedview13"
     showgrid="false"
     fit-margin-top="0"
     fit-margin-left="0"
     fit-margin-right="0"
     fit-margin-bottom="0"
     inkscape:zoom="2.8284271"
     inkscape:cx="92.865001"
     inkscape:cy="39.060137"
     inkscape:window-x="0"
     inkscape:window-y="24"
     inkscape:window-maximized="1"
     inkscape:current-layer="Group"
     inkscape:snap-bbox="true"
     inkscape:snap-intersection-paths="true"
     inkscape:snap-object-midpoints="true"
     inkscape:bbox-paths="true"
     inkscape:bbox-nodes="true"
     inkscape:snap-bbox-edge-midpoints="true" />
  <title
     id="title4">Slice 1</title>
  <description>Created with Sketch (http://www.bohemiancoding.com/sketch)</description>
  <defs
     id="defs6" />
  <g
     id="Page-1"
     sketch:type="MSPage"
     style="fill:none;fill-rule:evenodd;stroke:none;stroke-width:1"
     transform="translate(64,64)">
    <g
       id="principles"
       sketch:type="MSLayerGroup"
       style="fill:#000000">
      <g
         id="Icon"
         sketch:type="MSShapeGroup">
        <g
           id="Group">
          <path
             style="opacity:1;fill:#ffffff;fill-opacity:1;fill-rule:evenodd;stroke:none;stroke-width:1;stroke-linecap:round;stroke-linejoin:round;stroke-miterlimit:10;stroke-dasharray:none;stroke-dashoffset:0;stroke-opacity:1"
             d="M 84 0.23828125 A 83.762039 83.762039 0 0 0 0.23828125 84 A 83.762039 83.762039 0 0 0 84 167.76172 A 83.762039 83.762039 0 0 0 167.76172 84 A 83.762039 83.762039 0 0 0 84 0.23828125 z M 55.072266 33.220703 C 55.475317 33.234734 55.882921 33.287589 56.28125 33.271484 C 59.837593 33.237997 63.405404 33.764584 66.697266 35.152344 C 73.685712 37.968493 79.364614 43.902949 81.945312 50.972656 C 83.671044 55.438278 83.607796 60.336086 83.142578 65.027344 C 90.646816 72.539305 98.151873 80.05068 105.65625 87.5625 C 112.47367 94.48681 119.51891 101.19552 126.09375 108.35352 C 128.09231 110.36748 128.98667 113.18215 129.22266 115.95312 C 130.01496 123.18271 124.66268 130.24393 117.73438 132.05469 C 113.52848 133.31139 108.82931 132.28408 105.33008 129.71094 C 90.621077 115.42781 76.228362 100.82097 61.689453 86.365234 C 59.572277 86.608357 57.434608 86.644384 55.304688 86.667969 C 44.832247 86.327567 35.056893 78.98289 31.613281 69.113281 C 30.297082 65.823792 30.054793 62.26601 30.050781 58.761719 C 29.716401 57.809041 30.488357 56.354481 31.572266 57.064453 C 37.582507 62.809731 43.300454 68.890793 49.408203 74.544922 C 55.251633 73.146562 61.105636 71.811396 66.886719 70.134766 C 68.352282 64.973927 69.619941 59.773544 70.861328 54.552734 C 70.864365 53.894976 71.471074 53.09181 71.109375 52.505859 C 65.967105 46.933988 60.455214 41.709704 55.146484 36.296875 C 54.454833 35.517252 52.788023 34.526526 53.894531 33.404297 C 54.270756 33.231006 54.669214 33.206672 55.072266 33.220703 z M 114.9707 112.02539 C 112.05365 112.1377 109.46602 114.47143 108.91992 117.33398 C 108.04162 121.11572 111.24554 125.21979 115.16211 125.10742 C 118.42805 125.35101 121.39375 122.70448 121.82812 119.52734 C 122.49076 115.80493 119.31967 112.0781 115.55859 112.0332 C 115.36169 112.02045 115.16517 112.0179 114.9707 112.02539 z "
             transform="translate(-64,-64)"
             id="path4816" />
          <g
             transform="matrix(0.37495769,0,0,0.37495769,-35.385325,-32.306029)"
             style="fill:#ffffff;fill-rule:evenodd;stroke:#000000;stroke-width:1;stroke-opacity:1;fill-opacity:1"
             id="Page-1-3"
             sketch:type="MSPage" />
        </g>
      </g>
    </g>
  </g>
</svg>
