<?xml version="1.0" encoding="UTF-8" standalone="no"?>
<svg
   xmlns:sketch="http://www.bohemiancoding.com/sketch/ns"
   xmlns:dc="http://purl.org/dc/elements/1.1/"
   xmlns:cc="http://creativecommons.org/ns#"
   xmlns:rdf="http://www.w3.org/1999/02/22-rdf-syntax-ns#"
   xmlns:svg="http://www.w3.org/2000/svg"
   xmlns="http://www.w3.org/2000/svg"
   xmlns:sodipodi="http://sodipodi.sourceforge.net/DTD/sodipodi-0.dtd"
   xmlns:inkscape="http://www.inkscape.org/namespaces/inkscape"
   width="168"
   height="168"
   viewBox="0 0 168 168"
   version="1.1"
   id="svg2"
   inkscape:version="0.91 r13725"
   sodipodi:docname="design.svg">
  <metadata
     id="metadata15">
    <rdf:RDF>
      <cc:Work
         rdf:about="">
        <dc:format>image/svg+xml</dc:format>
        <dc:type
           rdf:resource="http://purl.org/dc/dcmitype/StillImage" />
        <dc:title>Slice 1</dc:title>
      </cc:Work>
    </rdf:RDF>
  </metadata>
  <sodipodi:namedview
     pagecolor="#ffffff"
     bordercolor="#666666"
     borderopacity="1"
     objecttolerance="10"
     gridtolerance="10"
     guidetolerance="10"
     inkscape:pageopacity="0"
     inkscape:pageshadow="2"
     inkscape:window-width="1301"
     inkscape:window-height="744"
     id="namedview13"
     showgrid="false"
     fit-margin-top="0"
     fit-margin-left="0"
     fit-margin-right="0"
     fit-margin-bottom="0"
     inkscape:zoom="0.70710678"
     inkscape:cx="-210.2507"
     inkscape:cy="188.33283"
     inkscape:window-x="65"
     inkscape:window-y="24"
     inkscape:window-maximized="1"
     inkscape:current-layer="Group"
     inkscape:snap-bbox="true"
     inkscape:snap-intersection-paths="true"
     inkscape:snap-object-midpoints="true"
     inkscape:bbox-paths="true"
     inkscape:bbox-nodes="true"
     inkscape:snap-bbox-edge-midpoints="true" />
  <title
     id="title4">Slice 1</title>
  <description>Created with Sketch (http://www.bohemiancoding.com/sketch)</description>
  <defs
     id="defs6" />
  <g
     id="Page-1"
     sketch:type="MSPage"
     style="fill:none;fill-rule:evenodd;stroke:none;stroke-width:1"
     transform="translate(64,64)">
    <g
       id="principles"
       sketch:type="MSLayerGroup"
       style="fill:#000000">
      <g
         id="Icon"
         sketch:type="MSShapeGroup">
        <g
           id="Group">
          <path
             style="opacity:1;fill:#ffffff;fill-opacity:1;stroke:none;stroke-width:4.19999981;stroke-linecap:round;stroke-linejoin:round;stroke-miterlimit:4;stroke-dasharray:none;stroke-dashoffset:0;stroke-opacity:1"
             d="m 19.969282,-63.366907 a 83.761719,83.761719 0 0 0 -83.76172,83.761721 83.761719,83.761719 0 0 0 83.76172,83.761726 83.761719,83.761719 0 0 0 83.761728,-83.761726 83.761719,83.761719 0 0 0 -83.761728,-83.761721 z m -0.9375,26.773437 0.01562,0 0.01367,0 c 20.88663,5e-6 37.81836,16.931726 37.81836,37.8183602 -0.01787,7.173964 0.26201,12.7164238 -4.52929,21.2734338 -6.26512,11.18918 -16.03704,17.29472 -17.9375,30.77344 -0.23761,1.68516 0,5.10547 0,5.10547 0,2.05356 -1.65152,3.70703 -3.70508,3.70703 l -11.66016,0 -11.6601494,0 c -2.05356,0 -3.70704,-1.65347 -3.70704,-3.70703 0,0 0.2376,-3.42031 0,-5.10547 -1.90047,-13.47872 -11.6704205,-19.58426 -17.9355406,-30.77344 -4.7913,-8.55701 -4.51345,-14.0994698 -4.53125,-21.2734338 0,-20.8866302 16.9317306,-37.8183552 37.81836,-37.8183602 z M 8.6352926,2.3303542 c -0.87959,-0.026 -1.61767,0.51641 -1.92578,1.2129 -0.30833,0.697 -0.21369,1.60876 0.39844,2.24218 l 0.32617,0.34571 -1.49219,0 c -1.25405,3.7e-4 -2.22897,1.16404 -2.00781,2.39843 0,0 2.01343,11.2377998 4.12109,22.6191398 1.05383,5.69067 2.1312604,11.41582 2.9941404,15.80078 0.43147,2.19253 0.80996,4.04806 1.10743,5.41016 0.14865,0.68066 0.27568,1.23639 0.38672,1.66992 0.05512,0.21519 0.10649,0.40368 0.16211,0.58008 0.0076,0.02406 0.07871,0.35589 0.337889,0.7461 l 0.0019,0.002 c 0.3288,0.4948 0.83106,0.81305 1.33984,0.89844 0.50954,0.08552 1.00592,-0.03607 1.41406,-0.28321 0.40817,-0.24714 0.74393,-0.62994 0.9043,-1.12109 0.13797,-0.42258 0.08676,-0.91591 -0.10351,-1.37891 l 0.02343,-0.0078 c -10e-5,-1.5e-4 -0.01679,-0.04712 -0.02929,-0.08203 -0.01754,-0.05567 -0.05541,-0.19281 -0.09961,-0.36524 -0.089,-0.34749 -0.21245,-0.87248 -0.35547,-1.52734 -0.28609,-1.31 -0.65931,-3.15022 -1.08789,-5.32812 -0.85719,-4.35591 -1.93393,-10.07484 -2.986329,-15.75782 -1.88143,-10.15979 -3.3365504,-18.28193 -3.6796904,-20.19531 l 2.8808604,0 2.056639,2.1875 c 0.86481,0.91919 2.39248,0.82342 3.13477,-0.19727 l 1.44726,-1.99023 2.72071,0 1.95898,2.32031 c 0.87034,1.03017 2.54058,0.92439 3.27149,-0.20898 l 1.35937,-2.11133 2.49024,0 -3.375,18.37891 -4.60547,25.0664 c -0.12599,0.61229 0.01994,1.22318 0.34765,1.65039 0.32784,0.42738 0.79737,0.67847 1.28321,0.76758 0.48584,0.08911 1.01057,0.02149 1.46875,-0.26172 0.45817,-0.28322 0.81085,-0.80244 0.91015,-1.41992 l 3.21485,-17.49805 5.20703,-28.3535098 c 0.22708,-1.23688 -0.74624,-2.40803 -2.00391,-2.4082 l -2.30664,0 0.24023,-0.37305 c 0.34254,-0.51746 0.436,-1.13224 0.29493,-1.64844 -0.14108,-0.5162 -0.47775,-0.92319 -0.89063,-1.18945 -0.41286,-0.26627 -0.92079,-0.40279 -1.44922,-0.31836 -0.52842,0.08444 -1.05078,0.42179 -1.38086,0.94726 l -1.66601,2.58204 -2.47461,0 -1.91602,-2.26954 c -0.84144,-0.99648 -2.43975,-0.93942 -3.20703,0.11524 l -1.5664,2.1543 -2.80079,0 -2.951169,-3.13868 -0.0019,-0.00195 c -0.3015104,-0.32902 -0.7108004,-0.51011 -1.1445304,-0.58984 a 0.7785023,0.7785023 0 0 0 -0.29492,-0.07032 l -0.00196,0 z m 21.8457094,61.8945398 -0.1875,7.02148 -22.9335994,0.2793 0,-5.61524 19.0957094,-0.09375 -19.1894594,-1.40429 23.2148494,-0.1875 z m -2.2461,10.20312 -4.96094,7.20898 -9.26757,0 -4.9003894,-7.00976 19.1288994,-0.19922 z"
             id="path4961"
             inkscape:connector-curvature="0" />
          <g
             transform="matrix(0.37495769,0,0,0.37495769,-35.385325,-32.306029)"
             style="fill:#ffffff;fill-rule:evenodd;stroke:#000000;stroke-width:1;stroke-opacity:1;fill-opacity:1"
             id="Page-1-3"
             sketch:type="MSPage" />
        </g>
      </g>
    </g>
  </g>
</svg>
