<?xml version="1.0" encoding="UTF-8" standalone="no"?>
<!-- Created with Inkscape (http://www.inkscape.org/) -->

<svg
   xmlns:dc="http://purl.org/dc/elements/1.1/"
   xmlns:cc="http://creativecommons.org/ns#"
   xmlns:rdf="http://www.w3.org/1999/02/22-rdf-syntax-ns#"
   xmlns:svg="http://www.w3.org/2000/svg"
   xmlns="http://www.w3.org/2000/svg"
   xmlns:sodipodi="http://sodipodi.sourceforge.net/DTD/sodipodi-0.dtd"
   xmlns:inkscape="http://www.inkscape.org/namespaces/inkscape"
   width="38.034847mm"
   height="46.651127mm"
   viewBox="0 0 134.76914 165.29927"
   id="svg2"
   version="1.1"
   inkscape:version="0.91 r13725"
   sodipodi:docname="design_doc.svg">
  <defs
     id="defs4" />
  <sodipodi:namedview
     id="base"
     pagecolor="#ffffff"
     bordercolor="#666666"
     borderopacity="1.0"
     inkscape:pageopacity="0.0"
     inkscape:pageshadow="2"
     inkscape:zoom="0.35"
     inkscape:cx="583.48982"
     inkscape:cy="-255.01985"
     inkscape:document-units="px"
     inkscape:current-layer="layer1"
     showgrid="false"
     inkscape:snap-bbox="true"
     inkscape:bbox-paths="true"
     inkscape:bbox-nodes="true"
     inkscape:snap-bbox-edge-midpoints="true"
     inkscape:snap-bbox-midpoints="true"
     inkscape:object-paths="true"
     inkscape:snap-intersection-paths="true"
     inkscape:object-nodes="true"
     inkscape:snap-smooth-nodes="true"
     inkscape:snap-midpoints="true"
     inkscape:snap-global="false"
     inkscape:window-width="1301"
     inkscape:window-height="744"
     inkscape:window-x="65"
     inkscape:window-y="24"
     inkscape:window-maximized="1"
     fit-margin-top="0"
     fit-margin-left="0"
     fit-margin-right="0"
     fit-margin-bottom="0" />
  <metadata
     id="metadata7">
    <rdf:RDF>
      <cc:Work
         rdf:about="">
        <dc:format>image/svg+xml</dc:format>
        <dc:type
           rdf:resource="http://purl.org/dc/dcmitype/StillImage" />
        <dc:title></dc:title>
      </cc:Work>
    </rdf:RDF>
  </metadata>
  <g
     inkscape:label="Layer 1"
     inkscape:groupmode="layer"
     id="layer1"
     transform="translate(1114.5961,-311.45292)">
    <path
       style="opacity:1;fill:#ffffff;fill-opacity:1;stroke:none;stroke-width:13.69999981;stroke-linecap:round;stroke-linejoin:round;stroke-miterlimit:4;stroke-dasharray:none;stroke-dashoffset:0;stroke-opacity:1"
       d="m -1109.1007,311.45292 c -3.0445,0 -5.4954,2.45096 -5.4954,5.49543 l 0,154.30841 c 0,3.04447 2.4509,5.49543 5.4954,5.49543 l 123.77833,0 c 3.04446,0 5.49542,-2.45096 5.49542,-5.49543 l 0,-111.8727 -40.37375,0 c -3.0444,0 -5.4954,-2.45097 -5.4954,-5.49543 l 0,-42.43571 -83.4046,0 z m 89.4045,10e-4 0,36.30464 c 0,3.04447 2.451,5.49543 5.4954,5.49543 l 33.15145,0 -38.64685,-41.80007 z m -79.3319,38.86154 54.5189,0 0,9.02428 -54.5189,0 0,-9.02428 z m 0,22.15582 50.8113,0 0,9.02428 -50.8113,0 0,-9.02428 z m 73.7948,3.90094 c 2.3469,-0.0427 4.7001,0.22521 6.9825,0.81335 8.5,2.19029 15.47,8.59409 18.324,16.83332 1.21627,3.51095 1.42795,5.10965 1.3942,10.57344 -0.0264,4.23581 -0.11043,5.27157 -0.56416,6.96589 -1.08394,4.04779 -2.93904,7.25701 -7.81624,13.5239 -5.4398,6.99003 -6.8837,10.08818 -7.0862,15.21022 -0.1293,3.27224 -0.4298,4.10092 -1.678,4.62245 -1.2046,0.50331 -17.0258,0.49942 -18.1833,-0.005 -1.2728,-0.55395 -1.586,-1.24085 -1.591,-3.4907 -0.012,-5.5736 -1.7194,-9.34169 -7.623,-16.81901 -3.9557,-5.01018 -5.7529,-7.97928 -6.9408,-11.46908 -0.9496,-2.78947 -1.1697,-4.93284 -1.0435,-10.17512 0.096,-3.97267 0.2151,-5.18655 0.6678,-6.82278 2.0741,-7.49463 7.0399,-13.59793 13.8245,-16.99074 3.5261,-1.76336 7.4215,-2.69913 11.3332,-2.77037 z m -73.7948,17.90666 39.0357,0 0,9.02428 -39.0357,0 0,-9.02428 z m 66.985,9.33195 c -0.077,-0.007 -0.1536,-0.007 -0.2289,10e-4 -0.2008,0.0224 -0.3963,0.10146 -0.5964,0.23256 -0.628,0.41157 -0.7488,1.10118 -0.3303,1.88309 0.2239,0.41842 0.1727,0.4818 -0.3899,0.4818 -1.096,0 -1.61,0.42743 -1.61,1.34166 0,0.45512 0.7802,5.06947 1.7328,10.25384 3.0796,16.76 4.0659,21.69877 4.4924,22.4957 0.4541,0.84839 1.4612,0.95744 2.1205,0.22898 0.449,-0.49618 0.4462,-0.57734 -0.097,-3.17227 -1.0723,-5.12695 -5.2629,-27.51936 -5.2629,-28.12232 0,-0.16986 0.3984,-0.2898 0.966,-0.2898 0.7953,0 1.1414,0.17658 1.9607,0.99581 1.3871,1.38724 2.0967,1.29619 3.214,-0.40905 0.2991,-0.4565 0.6079,-0.58676 1.3893,-0.58676 0.8645,0 1.1241,0.13966 1.8569,0.99581 1.1703,1.36725 2.051,1.37016 2.9921,0.009 0.5871,-0.84855 0.8124,-0.98765 1.6196,-0.99582 0.8482,-0.008 0.9254,0.0446 0.8038,0.55098 -0.074,0.30787 -1.3566,7.22021 -2.8503,15.36168 -2.4641,13.43135 -2.6825,14.85495 -2.3529,15.36286 0.4143,0.63849 1.6132,0.76586 2.0668,0.21943 0.1554,-0.18734 1.6415,-7.74463 3.3022,-16.79396 2.927,-15.94811 3.0057,-16.46888 2.57,-16.9502 -0.3106,-0.34321 -0.7665,-0.49612 -1.4752,-0.49612 l -1.0245,0 0.092,-0.97433 c 0.076,-0.80067 -0.011,-1.02554 -0.4519,-1.26533 -0.8581,-0.45919 -1.6343,-0.0978 -2.402,1.11744 -0.6237,0.98745 -0.8136,1.12064 -1.5992,1.12104 -0.7409,2.5e-4 -1.0263,-0.16733 -1.6911,-0.99462 -0.6021,-0.7492 -0.9786,-0.99461 -1.5229,-0.99461 -0.5443,0 -0.9209,0.24541 -1.5229,0.99461 -0.6808,0.8471 -0.941,0.9958 -1.7484,0.9958 -0.8086,0 -1.1038,-0.16992 -2.0059,-1.14845 -0.8662,-0.93975 -1.4745,-1.39585 -2.0167,-1.45018 z m -66.985,13.7827 39.4722,0 0,9.02548 -39.4722,0 0,-9.02548 z m 0,21.80759 50.8113,0 0,9.02547 -50.8113,0 0,-9.02547 z m 82.1762,7.44411 0,1.40009 c -5e-4,0.76968 -0.037,1.85536 -0.08,2.4126 l -0.079,1.01251 -2.5008,0.0715 c -4.1556,0.11964 -13.3499,0.19902 -13.4332,0.11568 -0.043,-0.0429 -0.079,-0.9366 -0.079,-1.98564 l 0,-1.90695 6.0642,-0.0155 c 3.4313,-0.008 5.767,-0.0565 5.3798,-0.11091 -0.3763,-0.0528 -2.9163,-0.25565 -5.6458,-0.4496 -2.7293,-0.19398 -4.8291,-0.38944 -4.6653,-0.43531 0.1637,-0.0459 3.6146,-0.0886 7.6683,-0.0954 l 7.3702,-0.0131 z m -3.6589,7.09587 c 1.2258,-0.002 2.0417,0.006 2.0417,0.0286 0,0.0402 -0.7456,1.15392 -1.6565,2.4758 l -1.6565,2.40425 -3.295,0.0322 -3.2964,0.0334 -1.6529,-2.37444 c -0.9089,-1.30579 -1.6245,-2.40162 -1.5909,-2.43526 0.066,-0.0662 7.4293,-0.1591 11.1065,-0.16457 z"
       id="rect4201"
       inkscape:connector-curvature="0" />
  </g>
</svg>
