<?xml version="1.0" encoding="UTF-8" standalone="no"?>
<!-- Created with Inkscape (http://www.inkscape.org/) -->

<svg
   xmlns:dc="http://purl.org/dc/elements/1.1/"
   xmlns:cc="http://creativecommons.org/ns#"
   xmlns:rdf="http://www.w3.org/1999/02/22-rdf-syntax-ns#"
   xmlns:svg="http://www.w3.org/2000/svg"
   xmlns="http://www.w3.org/2000/svg"
   xmlns:sodipodi="http://sodipodi.sourceforge.net/DTD/sodipodi-0.dtd"
   xmlns:inkscape="http://www.inkscape.org/namespaces/inkscape"
   width="121.92846mm"
   height="121.64307mm"
   viewBox="0 0 432.02998 431.01874"
   id="svg5231"
   version="1.1"
   inkscape:version="0.91 r13725"
   sodipodi:docname="gamedev_phases.svg">
  <defs
     id="defs5233">
    <marker
       inkscape:stockid="Arrow2Lend"
       orient="auto"
       refY="0"
       refX="0"
       id="marker6273"
       style="overflow:visible"
       inkscape:isstock="true">
      <path
         id="path6275"
         style="fill:#ffffff;fill-opacity:1;fill-rule:evenodd;stroke:#ffffff;stroke-width:0.625;stroke-linejoin:round;stroke-opacity:1"
         d="M 8.7185878,4.0337352 -2.2072895,0.01601326 8.7185884,-4.0017078 c -1.7454984,2.3720609 -1.7354408,5.6174519 -6e-7,8.035443 z"
         transform="matrix(-1.1,0,0,-1.1,-1.1,0)"
         inkscape:connector-curvature="0" />
    </marker>
    <marker
       inkscape:isstock="true"
       style="overflow:visible"
       id="marker6227"
       refX="0"
       refY="0"
       orient="auto"
       inkscape:stockid="Arrow2Lend"
       inkscape:collect="always">
      <path
         transform="matrix(-1.1,0,0,-1.1,-1.1,0)"
         d="M 8.7185878,4.0337352 -2.2072895,0.01601326 8.7185884,-4.0017078 c -1.7454984,2.3720609 -1.7354408,5.6174519 -6e-7,8.035443 z"
         style="fill:#ffffff;fill-opacity:1;fill-rule:evenodd;stroke:#ffffff;stroke-width:0.625;stroke-linejoin:round;stroke-opacity:1"
         id="path6229"
         inkscape:connector-curvature="0" />
    </marker>
    <marker
       inkscape:stockid="Arrow2Lend"
       orient="auto"
       refY="0"
       refX="0"
       id="Arrow2Lend"
       style="overflow:visible"
       inkscape:isstock="true"
       inkscape:collect="always">
      <path
         id="path5940"
         style="fill:#ffffff;fill-opacity:1;fill-rule:evenodd;stroke:#ffffff;stroke-width:0.625;stroke-linejoin:round;stroke-opacity:1"
         d="M 8.7185878,4.0337352 -2.2072895,0.01601326 8.7185884,-4.0017078 c -1.7454984,2.3720609 -1.7354408,5.6174519 -6e-7,8.035443 z"
         transform="matrix(-1.1,0,0,-1.1,-1.1,0)"
         inkscape:connector-curvature="0" />
    </marker>
    <marker
       inkscape:stockid="Arrow1Lend"
       orient="auto"
       refY="0"
       refX="0"
       id="Arrow1Lend"
       style="overflow:visible"
       inkscape:isstock="true">
      <path
         id="path5922"
         d="M 0,0 5,-5 -12.5,0 5,5 0,0 Z"
         style="fill:#000000;fill-opacity:1;fill-rule:evenodd;stroke:#000000;stroke-width:1pt;stroke-opacity:1"
         transform="matrix(-0.8,0,0,-0.8,-10,0)"
         inkscape:connector-curvature="0" />
    </marker>
  </defs>
  <sodipodi:namedview
     id="base"
     pagecolor="#ffffff"
     bordercolor="#666666"
     borderopacity="1.0"
     inkscape:pageopacity="0.0"
     inkscape:pageshadow="2"
     inkscape:zoom="0.49497475"
     inkscape:cx="231.35108"
     inkscape:cy="215.79225"
     inkscape:document-units="px"
     inkscape:current-layer="layer1"
     showgrid="false"
     inkscape:snap-object-midpoints="true"
     inkscape:snap-bbox="true"
     inkscape:snap-bbox-midpoints="true"
     inkscape:snap-bbox-edge-midpoints="true"
     inkscape:bbox-nodes="true"
     inkscape:bbox-paths="true"
     inkscape:snap-global="false"
     fit-margin-top="0"
     fit-margin-left="0"
     fit-margin-right="0"
     fit-margin-bottom="0"
     inkscape:window-width="1301"
     inkscape:window-height="744"
     inkscape:window-x="65"
     inkscape:window-y="24"
     inkscape:window-maximized="1" />
  <metadata
     id="metadata5236">
    <rdf:RDF>
      <cc:Work
         rdf:about="">
        <dc:format>image/svg+xml</dc:format>
        <dc:type
           rdf:resource="http://purl.org/dc/dcmitype/StillImage" />
        <dc:title></dc:title>
      </cc:Work>
    </rdf:RDF>
  </metadata>
  <g
     inkscape:label="Layer 1"
     inkscape:groupmode="layer"
     id="layer1"
     transform="translate(313.59492,-169.50507)">
    <circle
       style="opacity:1;fill:#2196f3;fill-opacity:1;stroke:none;stroke-width:5.30000019;stroke-linecap:round;stroke-linejoin:round;stroke-miterlimit:4;stroke-dasharray:none;stroke-dashoffset:0;stroke-opacity:1"
       id="path5809"
       cx="53.329834"
       cy="364.82077"
       r="65.105232" />
    <circle
       style="opacity:1;fill:#f44336;fill-opacity:1;stroke:none;stroke-width:5.30000019;stroke-linecap:round;stroke-linejoin:round;stroke-miterlimit:4;stroke-dasharray:none;stroke-dashoffset:0;stroke-opacity:1"
       id="path5809-1"
       cx="-204.54192"
       cy="414.94803"
       r="109.053" />
    <g
       transform="matrix(1.2938492,0,0,1.2938492,-465.61893,-389.93987)"
       style="font-style:normal;font-weight:normal;font-size:40px;line-height:0%;font-family:sans-serif;letter-spacing:0px;word-spacing:0px;fill:#ffffff;fill-opacity:1;stroke:none;stroke-width:1px;stroke-linecap:butt;stroke-linejoin:miter;stroke-opacity:1"
       id="flowRoot5826">
      <path
         d="m 159.3418,621.6875 9.70703,0 0,13.88672 q -2.26563,0.72265 -4.60938,1.09375 -2.34375,0.37109 -5.42968,0.37109 -6.48438,0 -10.09766,-3.84765 -3.61328,-3.86719 -3.61328,-10.82032 0,-4.45312 1.77734,-7.79297 1.79688,-3.35937 5.15625,-5.11718 3.35938,-1.77735 7.8711,-1.77735 4.57031,0 8.51562,1.67969 l -1.28906,2.92969 q -3.86719,-1.64063 -7.44141,-1.64063 -5.21484,0 -8.14453,3.10547 -2.92969,3.10547 -2.92969,8.61328 0,5.78125 2.8125,8.76953 2.83203,2.98829 8.30078,2.98829 2.96875,0 5.80079,-0.6836 l 0,-8.78906 -6.38672,0 0,-2.96875 z"
         style="font-style:normal;font-variant:normal;font-weight:normal;font-stretch:normal;font-family:'Open Sans';-inkscape-font-specification:'Open Sans'"
         id="path6571"
         inkscape:connector-curvature="0" />
      <path
         d="m 193.87305,636.64844 -3.55469,-9.08203 -11.44531,0 -3.51563,9.08203 -3.35937,0 11.28906,-28.67188 2.79297,0 11.23047,28.67188 -3.4375,0 z m -4.58985,-12.07032 -3.32031,-8.84765 q -0.64453,-1.67969 -1.32812,-4.1211 -0.42969,1.875 -1.23047,4.1211 l -3.35938,8.84765 9.23828,0 z"
         style="font-style:normal;font-variant:normal;font-weight:normal;font-stretch:normal;font-family:'Open Sans';-inkscape-font-specification:'Open Sans'"
         id="path6573"
         inkscape:connector-curvature="0" />
      <path
         d="m 213.87305,636.64844 -9.6875,-25.3125 -0.15625,0 q 0.27343,3.00781 0.27343,7.14843 l 0,18.16407 -3.0664,0 0,-28.55469 5,0 9.04297,23.55469 0.15625,0 9.12109,-23.55469 4.96094,0 0,28.55469 -3.32031,0 0,-18.39844 q 0,-3.16406 0.27343,-6.875 l -0.15625,0 -9.76562,25.27344 -2.67578,0 z"
         style="font-style:normal;font-variant:normal;font-weight:normal;font-stretch:normal;font-family:'Open Sans';-inkscape-font-specification:'Open Sans'"
         id="path6575"
         inkscape:connector-curvature="0" />
      <path
         d="m 253.24805,636.64844 -15.91797,0 0,-28.55469 15.91797,0 0,2.94922 -12.59766,0 0,9.19922 11.83594,0 0,2.92968 -11.83594,0 0,10.50782 12.59766,0 0,2.96875 z"
         style="font-style:normal;font-variant:normal;font-weight:normal;font-stretch:normal;font-family:'Open Sans';-inkscape-font-specification:'Open Sans'"
         id="path6577"
         inkscape:connector-curvature="0" />
    </g>
    <circle
       style="opacity:1;fill:#2196f3;fill-opacity:1;stroke:none;stroke-width:5.30000019;stroke-linecap:round;stroke-linejoin:round;stroke-miterlimit:4;stroke-dasharray:none;stroke-dashoffset:0;stroke-opacity:1"
       id="path5809-3"
       cx="-76.88063"
       cy="234.61031"
       r="65.105232" />
    <circle
       style="opacity:1;fill:#2196f3;fill-opacity:1;stroke:none;stroke-width:5.30000019;stroke-linecap:round;stroke-linejoin:round;stroke-miterlimit:4;stroke-dasharray:none;stroke-dashoffset:0;stroke-opacity:1"
       id="path5809-5"
       cx="-9.5684423"
       cy="535.41858"
       r="65.105232" />
    <g
       transform="matrix(0.77243496,0,0,0.77243496,-236.66001,-249.53291)"
       style="font-style:normal;font-weight:normal;font-size:40px;line-height:0%;font-family:sans-serif;letter-spacing:0px;word-spacing:0px;fill:#ffffff;fill-opacity:1;stroke:none;stroke-width:1px;stroke-linecap:butt;stroke-linejoin:miter;stroke-opacity:1"
       id="flowRoot5826-9">
      <path
         d="m 169.57617,622.09766 q 0,7.07031 -3.84765,10.82031 -3.82813,3.73047 -11.03516,3.73047 l -7.91016,0 0,-28.55469 8.75,0 q 6.66016,0 10.35157,3.69141 3.6914,3.6914 3.6914,10.3125 z m -3.51562,0.11718 q 0,-5.58593 -2.8125,-8.41797 -2.79297,-2.83203 -8.32032,-2.83203 l -4.82421,0 0,22.8125 4.04296,0 q 5.9375,0 8.92579,-2.91015 2.98828,-2.92969 2.98828,-8.65235 z"
         style="font-style:normal;font-variant:normal;font-weight:normal;font-stretch:normal;font-family:'Open Sans';-inkscape-font-specification:'Open Sans'"
         id="path6604"
         inkscape:connector-curvature="0" />
      <path
         d="m 184.47852,637.03906 q -4.7461,0 -7.5,-2.89062 -2.73438,-2.89063 -2.73438,-8.02735 0,-5.17578 2.53906,-8.22265 2.5586,-3.04688 6.85547,-3.04688 4.02344,0 6.36719,2.65625 2.34375,2.63672 2.34375,6.97266 l 0,2.05078 -14.74609,0 q 0.0976,3.76953 1.89453,5.72266 1.8164,1.95312 5.09765,1.95312 3.45703,0 6.83594,-1.44531 l 0,2.89062 q -1.71875,0.74219 -3.26172,1.05469 -1.52344,0.33203 -3.6914,0.33203 z m -0.87891,-19.47265 q -2.57813,0 -4.12109,1.67968 -1.52344,1.67969 -1.79688,4.64844 l 11.19141,0 q 0,-3.06641 -1.36719,-4.6875 -1.36719,-1.64062 -3.90625,-1.64062 z"
         style="font-style:normal;font-variant:normal;font-weight:normal;font-stretch:normal;font-family:'Open Sans';-inkscape-font-specification:'Open Sans'"
         id="path6606"
         inkscape:connector-curvature="0" />
      <path
         d="m 211.66602,630.80859 q 0,2.98828 -2.22657,4.60938 -2.22656,1.62109 -6.25,1.62109 -4.25781,0 -6.64062,-1.34765 l 0,-3.00782 q 1.54297,0.78125 3.30078,1.23047 1.77734,0.44922 3.41797,0.44922 2.53906,0 3.90625,-0.80078 1.36719,-0.82031 1.36719,-2.48047 0,-1.25 -1.09375,-2.12891 -1.07422,-0.89843 -4.21875,-2.10937 -2.98829,-1.11328 -4.25782,-1.93359 -1.25,-0.83985 -1.875,-1.89454 -0.60547,-1.05468 -0.60547,-2.51953 0,-2.61718 2.12891,-4.12109 2.12891,-1.52344 5.83984,-1.52344 3.45704,0 6.75782,1.40625 l -1.15235,2.63672 q -3.22265,-1.32812 -5.83984,-1.32812 -2.30469,0 -3.47656,0.72265 -1.17188,0.72266 -1.17188,1.99219 0,0.85937 0.42969,1.46484 0.44922,0.60547 1.42578,1.15235 0.97656,0.54687 3.75,1.58203 3.80859,1.38672 5.13672,2.79297 1.34766,1.40625 1.34766,3.53515 z"
         style="font-style:normal;font-variant:normal;font-weight:normal;font-stretch:normal;font-family:'Open Sans';-inkscape-font-specification:'Open Sans'"
         id="path6608"
         inkscape:connector-curvature="0" />
      <path
         d="m 220.16211,636.64844 -3.24219,0 0,-21.40625 3.24219,0 0,21.40625 z m -3.51563,-27.20703 q 0,-1.11329 0.54688,-1.6211 0.54687,-0.52734 1.36719,-0.52734 0.78125,0 1.34765,0.52734 0.56641,0.52735 0.56641,1.6211 0,1.09375 -0.56641,1.64062 -0.5664,0.52734 -1.34765,0.52734 -0.82032,0 -1.36719,-0.52734 -0.54688,-0.54687 -0.54688,-1.64062 z"
         style="font-style:normal;font-variant:normal;font-weight:normal;font-stretch:normal;font-family:'Open Sans';-inkscape-font-specification:'Open Sans'"
         id="path6610"
         inkscape:connector-curvature="0" />
      <path
         d="m 244.5957,615.24219 0,2.05078 -3.96484,0.46875 q 0.54687,0.68359 0.97656,1.79687 0.42969,1.09375 0.42969,2.48047 0,3.14453 -2.14844,5.01953 -2.14844,1.875 -5.89844,1.875 -0.95703,0 -1.79687,-0.15625 -2.07031,1.09375 -2.07031,2.75391 0,0.87891 0.72265,1.30859 0.72266,0.41016 2.48047,0.41016 l 3.78906,0 q 3.47657,0 5.33204,1.46484 1.875,1.46485 1.875,4.25782 0,3.55468 -2.85157,5.41015 -2.85156,1.875 -8.32031,1.875 -4.19922,0 -6.48437,-1.5625 -2.26563,-1.5625 -2.26563,-4.41406 0,-1.95313 1.25,-3.37891 1.25,-1.42578 3.51563,-1.93359 -0.82032,-0.37109 -1.38672,-1.15234 -0.54688,-0.78125 -0.54688,-1.81641 0,-1.17188 0.625,-2.05078 0.625,-0.87891 1.97266,-1.69922 -1.66016,-0.68359 -2.71485,-2.32422 -1.03515,-1.64062 -1.03515,-3.75 0,-3.51562 2.10937,-5.41016 2.10938,-1.91406 5.97657,-1.91406 1.67968,0 3.02734,0.39063 l 7.40234,0 z m -17.07031,25 q 0,1.73828 1.46484,2.63672 1.46485,0.89843 4.19922,0.89843 4.08203,0 6.03516,-1.23047 1.97266,-1.21093 1.97266,-3.30078 0,-1.73828 -1.07422,-2.42187 -1.07422,-0.66406 -4.04297,-0.66406 l -3.88672,0 q -2.20703,0 -3.4375,1.05468 -1.23047,1.05469 -1.23047,3.02735 z m 1.75781,-18.14453 q 0,2.24609 1.26953,3.39843 1.26954,1.15235 3.53516,1.15235 4.74609,0 4.74609,-4.60938 0,-4.82422 -4.80468,-4.82422 -2.28516,0 -3.51563,1.23047 -1.23047,1.23047 -1.23047,3.65235 z"
         style="font-style:normal;font-variant:normal;font-weight:normal;font-stretch:normal;font-family:'Open Sans';-inkscape-font-specification:'Open Sans'"
         id="path6612"
         inkscape:connector-curvature="0" />
      <path
         d="m 263.67773,636.64844 0,-13.84766 q 0,-2.61719 -1.1914,-3.90625 -1.19141,-1.28906 -3.73047,-1.28906 -3.35938,0 -4.92188,1.8164 -1.5625,1.81641 -1.5625,5.9961 l 0,11.23047 -3.24218,0 0,-21.40625 2.63672,0 0.52734,2.92968 0.15625,0 q 0.99609,-1.58203 2.79297,-2.4414 1.79687,-0.87891 4.0039,-0.87891 3.86719,0 5.82032,1.875 1.95312,1.85547 1.95312,5.95703 l 0,13.96485 -3.24219,0 z"
         style="font-style:normal;font-variant:normal;font-weight:normal;font-stretch:normal;font-family:'Open Sans';-inkscape-font-specification:'Open Sans'"
         id="path6614"
         inkscape:connector-curvature="0" />
    </g>
    <g
       transform="matrix(0.77243496,0,0,0.77243496,-104.59389,-115.91287)"
       style="font-style:normal;font-weight:normal;font-size:40px;line-height:0%;font-family:sans-serif;letter-spacing:0px;word-spacing:0px;fill:#ffffff;fill-opacity:1;stroke:none;stroke-width:1px;stroke-linecap:butt;stroke-linejoin:miter;stroke-opacity:1"
       id="flowRoot5826-94">
      <path
         d="m 159.00977,610.65234 q -4.70704,0 -7.44141,3.14453 -2.71484,3.125 -2.71484,8.57422 0,5.60547 2.61718,8.67188 2.63672,3.04687 7.5,3.04687 2.98828,0 6.81641,-1.07422 l 0,2.91016 q -2.96875,1.11328 -7.32422,1.11328 -6.30859,0 -9.74609,-3.82812 -3.41797,-3.82813 -3.41797,-10.87891 0,-4.41406 1.64062,-7.73437 1.66016,-3.32032 4.76563,-5.11719 3.125,-1.79688 7.34375,-1.79688 4.49219,0 7.85156,1.64063 l -1.40625,2.85156 q -3.24219,-1.52344 -6.48437,-1.52344 z"
         style="font-style:normal;font-variant:normal;font-weight:normal;font-stretch:normal;font-family:'Open Sans';-inkscape-font-specification:'Open Sans'"
         id="path6591"
         inkscape:connector-curvature="0" />
      <path
         d="m 181.29492,614.85156 q 1.42578,0 2.5586,0.23438 l -0.44922,3.00781 q -1.32813,-0.29297 -2.34375,-0.29297 -2.59766,0 -4.45313,2.10938 -1.83594,2.10937 -1.83594,5.2539 l 0,11.48438 -3.24218,0 0,-21.40625 2.67578,0 0.37109,3.96484 0.15625,0 q 1.19141,-2.08984 2.8711,-3.22266 1.67968,-1.13281 3.6914,-1.13281 z"
         style="font-style:normal;font-variant:normal;font-weight:normal;font-stretch:normal;font-family:'Open Sans';-inkscape-font-specification:'Open Sans'"
         id="path6593"
         inkscape:connector-curvature="0" />
      <path
         d="m 196.90039,637.03906 q -4.74609,0 -7.5,-2.89062 -2.73437,-2.89063 -2.73437,-8.02735 0,-5.17578 2.53906,-8.22265 2.55859,-3.04688 6.85547,-3.04688 4.02343,0 6.36718,2.65625 2.34375,2.63672 2.34375,6.97266 l 0,2.05078 -14.74609,0 q 0.0977,3.76953 1.89453,5.72266 1.81641,1.95312 5.09766,1.95312 3.45703,0 6.83594,-1.44531 l 0,2.89062 q -1.71875,0.74219 -3.26172,1.05469 -1.52344,0.33203 -3.69141,0.33203 z m -0.87891,-19.47265 q -2.57812,0 -4.12109,1.67968 -1.52344,1.67969 -1.79687,4.64844 l 11.1914,0 q 0,-3.06641 -1.36719,-4.6875 -1.36718,-1.64062 -3.90625,-1.64062 z"
         style="font-style:normal;font-variant:normal;font-weight:normal;font-stretch:normal;font-family:'Open Sans';-inkscape-font-specification:'Open Sans'"
         id="path6595"
         inkscape:connector-curvature="0" />
      <path
         d="m 223.44336,636.64844 -0.64453,-3.04688 -0.15625,0 q -1.60156,2.01172 -3.20313,2.73438 -1.58203,0.70312 -3.96484,0.70312 -3.18359,0 -5,-1.64062 -1.79688,-1.64063 -1.79688,-4.66797 0,-6.48438 10.3711,-6.79688 l 3.63281,-0.11718 0,-1.32813 q 0,-2.51953 -1.09375,-3.71094 -1.07422,-1.21093 -3.45703,-1.21093 -2.67578,0 -6.05469,1.64062 l -0.99609,-2.48047 q 1.58203,-0.85937 3.45703,-1.34765 1.89453,-0.48829 3.78906,-0.48829 3.82813,0 5.66406,1.69922 1.85547,1.69922 1.85547,5.44922 l 0,14.60938 -2.40234,0 z m -7.32422,-2.28516 q 3.02734,0 4.74609,-1.66016 1.73829,-1.66015 1.73829,-4.64843 l 0,-1.9336 -3.24219,0.13672 q -3.86719,0.13672 -5.58594,1.21094 -1.69922,1.05469 -1.69922,3.30078 0,1.75781 1.05469,2.67578 1.07422,0.91797 2.98828,0.91797 z"
         style="font-style:normal;font-variant:normal;font-weight:normal;font-stretch:normal;font-family:'Open Sans';-inkscape-font-specification:'Open Sans'"
         id="path6597"
         inkscape:connector-curvature="0" />
      <path
         d="m 239.45898,634.36328 q 0.85938,0 1.66016,-0.11719 0.80078,-0.13672 1.26953,-0.27343 l 0,2.48046 q -0.52734,0.25391 -1.5625,0.41016 -1.01562,0.17578 -1.83594,0.17578 -6.21093,0 -6.21093,-6.54297 l 0,-12.73437 -3.06641,0 0,-1.5625 3.06641,-1.34766 1.36718,-4.57031 1.875,0 0,4.96094 6.21094,0 0,2.51953 -6.21094,0 0,12.59765 q 0,1.9336 0.91797,2.96875 0.91797,1.03516 2.51953,1.03516 z"
         style="font-style:normal;font-variant:normal;font-weight:normal;font-stretch:normal;font-family:'Open Sans';-inkscape-font-specification:'Open Sans'"
         id="path6599"
         inkscape:connector-curvature="0" />
      <path
         d="m 255.72852,637.03906 q -4.7461,0 -7.5,-2.89062 -2.73438,-2.89063 -2.73438,-8.02735 0,-5.17578 2.53906,-8.22265 2.5586,-3.04688 6.85547,-3.04688 4.02344,0 6.36719,2.65625 2.34375,2.63672 2.34375,6.97266 l 0,2.05078 -14.74609,0 q 0.0976,3.76953 1.89453,5.72266 1.8164,1.95312 5.09765,1.95312 3.45703,0 6.83594,-1.44531 l 0,2.89062 q -1.71875,0.74219 -3.26172,1.05469 -1.52344,0.33203 -3.6914,0.33203 z m -0.87891,-19.47265 q -2.57813,0 -4.12109,1.67968 -1.52344,1.67969 -1.79688,4.64844 l 11.19141,0 q 0,-3.06641 -1.36719,-4.6875 -1.36719,-1.64062 -3.90625,-1.64062 z"
         style="font-style:normal;font-variant:normal;font-weight:normal;font-stretch:normal;font-family:'Open Sans';-inkscape-font-specification:'Open Sans'"
         id="path6601"
         inkscape:connector-curvature="0" />
    </g>
    <g
       transform="matrix(0.77243496,0,0,0.77243496,-156.9089,55.235568)"
       style="font-style:normal;font-weight:normal;font-size:40px;line-height:0%;font-family:sans-serif;letter-spacing:0px;word-spacing:0px;fill:#ffffff;fill-opacity:1;stroke:none;stroke-width:1px;stroke-linecap:butt;stroke-linejoin:miter;stroke-opacity:1"
       id="flowRoot5826-1">
      <path
         d="m 146.7832,608.09375 8.06641,0 q 5.68359,0 8.22266,1.69922 2.53906,1.69922 2.53906,5.37109 0,2.53906 -1.42578,4.19922 -1.40625,1.64063 -4.1211,2.12891 l 0,0.19531 q 6.50391,1.11328 6.50391,6.83594 0,3.82812 -2.59766,5.97656 -2.57812,2.14844 -7.22656,2.14844 l -9.96094,0 0,-28.55469 z m 3.32032,12.22656 5.46875,0 q 3.51562,0 5.05859,-1.09375 1.54297,-1.11328 1.54297,-3.73047 0,-2.40234 -1.71875,-3.45703 -1.71875,-1.07422 -5.46875,-1.07422 l -4.88281,0 0,9.35547 z m 0,2.8125 0,10.6836 5.95703,0 q 3.45703,0 5.19531,-1.32813 1.75781,-1.34766 1.75781,-4.19922 0,-2.65625 -1.79687,-3.90625 -1.77735,-1.25 -5.42969,-1.25 l -5.68359,0 z"
         style="font-style:normal;font-variant:normal;font-weight:normal;font-stretch:normal;font-family:'Open Sans';-inkscape-font-specification:'Open Sans'"
         id="path6580"
         inkscape:connector-curvature="0" />
      <path
         d="m 175.2793,615.24219 0,13.88672 q 0,2.61718 1.1914,3.90625 1.19141,1.28906 3.73047,1.28906 3.35938,0 4.90235,-1.83594 1.5625,-1.83594 1.5625,-5.99609 l 0,-11.25 3.24218,0 0,21.40625 -2.67578,0 -0.46875,-2.8711 -0.17578,0 q -0.99609,1.58203 -2.77344,2.42188 -1.75781,0.83984 -4.02343,0.83984 -3.90625,0 -5.85938,-1.85547 -1.93359,-1.85547 -1.93359,-5.9375 l 0,-14.0039 3.28125,0 z"
         style="font-style:normal;font-variant:normal;font-weight:normal;font-stretch:normal;font-family:'Open Sans';-inkscape-font-specification:'Open Sans'"
         id="path6582"
         inkscape:connector-curvature="0" />
      <path
         d="m 200.00586,636.64844 -3.24219,0 0,-21.40625 3.24219,0 0,21.40625 z m -3.51563,-27.20703 q 0,-1.11329 0.54688,-1.6211 0.54687,-0.52734 1.36719,-0.52734 0.78125,0 1.34765,0.52734 0.56641,0.52735 0.56641,1.6211 0,1.09375 -0.56641,1.64062 -0.5664,0.52734 -1.34765,0.52734 -0.82032,0 -1.36719,-0.52734 -0.54688,-0.54687 -0.54688,-1.64062 z"
         style="font-style:normal;font-variant:normal;font-weight:normal;font-stretch:normal;font-family:'Open Sans';-inkscape-font-specification:'Open Sans'"
         id="path6584"
         inkscape:connector-curvature="0" />
      <path
         d="m 210.16211,636.64844 -3.24219,0 0,-30.39063 3.24219,0 0,30.39063 z"
         style="font-style:normal;font-variant:normal;font-weight:normal;font-stretch:normal;font-family:'Open Sans';-inkscape-font-specification:'Open Sans'"
         id="path6586"
         inkscape:connector-curvature="0" />
      <path
         d="m 231.64648,633.77734 -0.17578,0 q -2.24609,3.26172 -6.71875,3.26172 -4.19922,0 -6.54297,-2.87109 -2.32421,-2.8711 -2.32421,-8.16406 0,-5.29297 2.34375,-8.22266 2.34375,-2.92969 6.52343,-2.92969 4.35547,0 6.67969,3.16406 l 0.25391,0 -0.13672,-1.54296 -0.0781,-1.50391 0,-8.71094 3.24219,0 0,30.39063 -2.63672,0 -0.42969,-2.8711 z m -6.48437,0.54688 q 3.32031,0 4.80469,-1.79688 1.5039,-1.8164 1.5039,-5.83984 l 0,-0.68359 q 0,-4.55079 -1.52343,-6.48438 -1.50391,-1.95312 -4.82422,-1.95312 -2.85157,0 -4.375,2.22656 -1.50391,2.20703 -1.50391,6.25 0,4.10156 1.50391,6.1914 1.5039,2.08985 4.41406,2.08985 z"
         style="font-style:normal;font-variant:normal;font-weight:normal;font-stretch:normal;font-family:'Open Sans';-inkscape-font-specification:'Open Sans'"
         id="path6588"
         inkscape:connector-curvature="0" />
    </g>
    <path
       style="fill:#ffffff;fill-rule:evenodd;stroke:#ffffff;stroke-width:2.08557439;stroke-linecap:butt;stroke-linejoin:miter;stroke-miterlimit:4;stroke-dasharray:none;stroke-opacity:1;marker-end:url(#marker6227)"
       d="M -30.844277,280.64666 7.2934842,318.78442"
       id="path5911"
       inkscape:connector-curvature="0" />
    <path
       style="fill:#ffffff;fill-rule:evenodd;stroke:#ffffff;stroke-width:2.08557439;stroke-linecap:butt;stroke-linejoin:miter;stroke-miterlimit:4;stroke-dasharray:none;stroke-opacity:1;marker-end:url(#Arrow2Lend)"
       d="M 30.808247,425.90564 12.953146,474.33368"
       id="path5913"
       inkscape:connector-curvature="0" />
    <path
       style="fill:#ffffff;fill-rule:evenodd;stroke:#ffffff;stroke-width:2.08557439;stroke-linecap:butt;stroke-linejoin:miter;stroke-miterlimit:4;stroke-dasharray:none;stroke-opacity:1;marker-end:url(#marker6273)"
       d="M -64.953656,501.19704 -111.7702,472.26996"
       id="path6435"
       inkscape:connector-curvature="0" />
  </g>
</svg>
