<?xml version="1.0" encoding="UTF-8" standalone="no"?>
<!-- Created with Inkscape (http://www.inkscape.org/) -->

<svg
   xmlns:dc="http://purl.org/dc/elements/1.1/"
   xmlns:cc="http://creativecommons.org/ns#"
   xmlns:rdf="http://www.w3.org/1999/02/22-rdf-syntax-ns#"
   xmlns:svg="http://www.w3.org/2000/svg"
   xmlns="http://www.w3.org/2000/svg"
   xmlns:sodipodi="http://sodipodi.sourceforge.net/DTD/sodipodi-0.dtd"
   xmlns:inkscape="http://www.inkscape.org/namespaces/inkscape"
   width="151.06573mm"
   height="36.748287mm"
   viewBox="0 0 535.27229 130.21047"
   id="svg6766"
   version="1.1"
   inkscape:version="0.91 r13725"
   sodipodi:docname="milestones.svg">
  <defs
     id="defs6768">
    <marker
       inkscape:isstock="true"
       style="overflow:visible"
       id="marker7620"
       refX="0"
       refY="0"
       orient="auto"
       inkscape:stockid="Arrow1Lend">
      <path
         transform="matrix(-0.8,0,0,-0.8,-10,0)"
         style="fill:#ffffff;fill-opacity:1;fill-rule:evenodd;stroke:#ffffff;stroke-width:1pt;stroke-opacity:1"
         d="M 0,0 5,-5 -12.5,0 5,5 0,0 Z"
         id="path7622"
         inkscape:connector-curvature="0" />
    </marker>
    <marker
       inkscape:stockid="Arrow1Lend"
       orient="auto"
       refY="0"
       refX="0"
       id="Arrow1Lend"
       style="overflow:visible"
       inkscape:isstock="true"
       inkscape:collect="always">
      <path
         id="path5922"
         d="M 0,0 5,-5 -12.5,0 5,5 0,0 Z"
         style="fill:#ffffff;fill-opacity:1;fill-rule:evenodd;stroke:#ffffff;stroke-width:1pt;stroke-opacity:1"
         transform="matrix(-0.8,0,0,-0.8,-10,0)"
         inkscape:connector-curvature="0" />
    </marker>
    <marker
       inkscape:isstock="true"
       style="overflow:visible"
       id="marker7560"
       refX="0"
       refY="0"
       orient="auto"
       inkscape:stockid="TriangleOutL">
      <path
         transform="scale(0.8,0.8)"
         style="fill:#000000;fill-opacity:1;fill-rule:evenodd;stroke:#000000;stroke-width:1pt;stroke-opacity:1"
         d="m 5.77,0 -8.65,5 0,-10 8.65,5 z"
         id="path7562"
         inkscape:connector-curvature="0" />
    </marker>
    <marker
       inkscape:isstock="true"
       style="overflow:visible"
       id="marker7478"
       refX="0"
       refY="0"
       orient="auto"
       inkscape:stockid="Arrow1Lend">
      <path
         transform="matrix(-0.8,0,0,-0.8,-10,0)"
         style="fill:#000000;fill-opacity:1;fill-rule:evenodd;stroke:#000000;stroke-width:1pt;stroke-opacity:1"
         d="M 0,0 5,-5 -12.5,0 5,5 0,0 Z"
         id="path7480"
         inkscape:connector-curvature="0" />
    </marker>
  </defs>
  <sodipodi:namedview
     id="base"
     pagecolor="#ffffff"
     bordercolor="#666666"
     borderopacity="1.0"
     inkscape:pageopacity="0.0"
     inkscape:pageshadow="2"
     inkscape:zoom="0.49497475"
     inkscape:cx="337.52577"
     inkscape:cy="-136.322"
     inkscape:document-units="px"
     inkscape:current-layer="layer1"
     showgrid="false"
     inkscape:snap-bbox="true"
     inkscape:snap-intersection-paths="true"
     inkscape:snap-bbox-midpoints="true"
     showguides="true"
     inkscape:guide-bbox="true"
     inkscape:snap-object-midpoints="true"
     inkscape:bbox-nodes="true"
     inkscape:bbox-paths="true"
     fit-margin-top="0"
     fit-margin-left="0"
     fit-margin-right="0"
     fit-margin-bottom="0"
     inkscape:window-width="1301"
     inkscape:window-height="744"
     inkscape:window-x="65"
     inkscape:window-y="24"
     inkscape:window-maximized="1">
    <sodipodi:guide
       position="179.24315,130.21046"
       orientation="0,1"
       id="guide7413" />
  </sodipodi:namedview>
  <metadata
     id="metadata6771">
    <rdf:RDF>
      <cc:Work
         rdf:about="">
        <dc:format>image/svg+xml</dc:format>
        <dc:type
           rdf:resource="http://purl.org/dc/dcmitype/StillImage" />
        <dc:title></dc:title>
      </cc:Work>
    </rdf:RDF>
  </metadata>
  <g
     inkscape:label="Layer 1"
     inkscape:groupmode="layer"
     id="layer1"
     transform="translate(-45.010727,-315.96099)">
    <circle
       style="opacity:1;fill:#ff5722;fill-opacity:1;stroke:none;stroke-width:5.30000019;stroke-linecap:round;stroke-linejoin:round;stroke-miterlimit:4;stroke-dasharray:none;stroke-dashoffset:0;stroke-opacity:1"
       id="path5809-3"
       cx="110.11596"
       cy="381.06622"
       r="65.105232" />
    <g
       transform="matrix(0.77243496,0,0,0.77243496,223.07776,-200.35244)"
       style="font-style:normal;font-weight:normal;font-size:40px;line-height:0%;font-family:sans-serif;letter-spacing:0px;word-spacing:0px;fill:#ffffff;fill-opacity:1;stroke:none;stroke-width:1px;stroke-linecap:butt;stroke-linejoin:miter;stroke-opacity:1"
       id="flowRoot5826-9" />
    <flowRoot
       xml:space="preserve"
       id="flowRoot7350"
       style="font-style:normal;font-weight:normal;font-size:40px;line-height:0%;font-family:sans-serif;letter-spacing:0px;word-spacing:0px;fill:#000000;fill-opacity:1;stroke:none;stroke-width:1px;stroke-linecap:butt;stroke-linejoin:miter;stroke-opacity:1"><flowRegion
         id="flowRegion7352"><rect
           id="rect7354"
           width="242.43661"
           height="110.10663"
           x="37.375645"
           y="328.08282" /></flowRegion><flowPara
         id="flowPara7356"></flowPara></flowRoot>    <g
       transform="matrix(0.60474156,0,0,0.60474156,2.4654623,146.60119)"
       style="font-style:normal;font-weight:normal;font-size:40px;line-height:0%;font-family:sans-serif;letter-spacing:0px;word-spacing:0px;fill:#ffffff;fill-opacity:1;stroke:none;stroke-width:1px;stroke-linecap:butt;stroke-linejoin:miter;stroke-opacity:1"
       id="flowRoot7378">
      <path
         d="m 146.2627,382.71117 -3.55469,-9.08203 -11.44531,0 -3.51563,9.08203 -3.35937,0 11.28906,-28.67187 2.79297,0 11.23047,28.67187 -3.4375,0 z m -4.58985,-12.07031 -3.32031,-8.84766 q -0.64453,-1.67968 -1.32813,-4.12109 -0.42968,1.875 -1.23046,4.12109 l -3.35938,8.84766 9.23828,0 z"
         style="font-style:normal;font-variant:normal;font-weight:normal;font-stretch:normal;line-height:100%;font-family:'Open Sans';-inkscape-font-specification:'Open Sans';text-align:center;text-anchor:middle;fill:#ffffff"
         id="path7723"
         inkscape:connector-curvature="0" />
      <path
         d="m 156.37988,382.71117 -3.24218,0 0,-30.39062 3.24218,0 0,30.39062 z"
         style="font-style:normal;font-variant:normal;font-weight:normal;font-stretch:normal;line-height:100%;font-family:'Open Sans';-inkscape-font-specification:'Open Sans';text-align:center;text-anchor:middle;fill:#ffffff"
         id="path7725"
         inkscape:connector-curvature="0" />
      <path
         d="m 173.25488,383.1018 q -2.08984,0 -3.82812,-0.76172 -1.71875,-0.78125 -2.89063,-2.38281 l -0.23437,0 q 0.23437,1.875 0.23437,3.55468 l 0,8.8086 -3.24218,0 0,-31.01563 2.63671,0 0.44922,2.92969 0.15625,0 q 1.25,-1.75781 2.91016,-2.53906 1.66016,-0.78125 3.80859,-0.78125 4.25782,0 6.5625,2.91015 2.32422,2.91016 2.32422,8.16407 0,5.27343 -2.36328,8.20312 -2.34375,2.91016 -6.52344,2.91016 z m -0.46875,-19.4336 q -3.28125,0 -4.74609,1.81641 -1.46484,1.81641 -1.50391,5.78125 l 0,0.72266 q 0,4.51171 1.50391,6.46484 1.50391,1.93359 4.82422,1.93359 2.77344,0 4.33594,-2.24609 1.58203,-2.24609 1.58203,-6.19141 0,-4.0039 -1.58203,-6.13281 -1.5625,-2.14844 -4.41407,-2.14844 z"
         style="font-style:normal;font-variant:normal;font-weight:normal;font-stretch:normal;line-height:100%;font-family:'Open Sans';-inkscape-font-specification:'Open Sans';text-align:center;text-anchor:middle;fill:#ffffff"
         id="path7727"
         inkscape:connector-curvature="0" />
      <path
         d="m 202.47363,382.71117 0,-13.84765 q 0,-2.61719 -1.1914,-3.90625 -1.19141,-1.28907 -3.73047,-1.28907 -3.37891,0 -4.94141,1.83594 -1.54297,1.83594 -1.54297,6.01563 l 0,11.1914 -3.24218,0 0,-30.39062 3.24218,0 0,9.19922 q 0,1.66015 -0.15625,2.7539 l 0.19532,0 q 0.95703,-1.54297 2.71484,-2.42187 1.77734,-0.89844 4.04297,-0.89844 3.92578,0 5.8789,1.875 1.97266,1.85547 1.97266,5.91797 l 0,13.96484 -3.24219,0 z"
         style="font-style:normal;font-variant:normal;font-weight:normal;font-stretch:normal;line-height:100%;font-family:'Open Sans';-inkscape-font-specification:'Open Sans';text-align:center;text-anchor:middle;fill:#ffffff"
         id="path7729"
         inkscape:connector-curvature="0" />
      <path
         d="m 225.52051,382.71117 -0.64453,-3.04687 -0.15625,0 q -1.60157,2.01172 -3.20313,2.73437 -1.58203,0.70313 -3.96484,0.70313 -3.1836,0 -5,-1.64063 -1.79688,-1.64062 -1.79688,-4.66797 0,-6.48437 10.3711,-6.79687 l 3.63281,-0.11719 0,-1.32812 q 0,-2.51954 -1.09375,-3.71094 -1.07422,-1.21094 -3.45703,-1.21094 -2.67578,0 -6.05469,1.64063 l -0.99609,-2.48047 q 1.58203,-0.85938 3.45703,-1.34766 1.89453,-0.48828 3.78906,-0.48828 3.82813,0 5.66406,1.69922 1.85547,1.69922 1.85547,5.44922 l 0,14.60937 -2.40234,0 z m -7.32422,-2.28515 q 3.02734,0 4.74609,-1.66016 1.73828,-1.66016 1.73828,-4.64844 l 0,-1.93359 -3.24218,0.13672 q -3.86719,0.13672 -5.58594,1.21093 -1.69922,1.05469 -1.69922,3.30079 0,1.75781 1.05469,2.67578 1.07422,0.91797 2.98828,0.91797 z"
         style="font-style:normal;font-variant:normal;font-weight:normal;font-stretch:normal;line-height:100%;font-family:'Open Sans';-inkscape-font-specification:'Open Sans';text-align:center;text-anchor:middle;fill:#ffffff"
         id="path7731"
         inkscape:connector-curvature="0" />
      <path
         d="m 121.73145,402.4768 q 0,4.33593 -2.96875,6.67968 -2.94922,2.32422 -8.45704,2.32422 l -3.35937,0 0,11.23047 -3.32031,0 0,-28.55469 7.40234,0 q 10.70313,0 10.70313,8.32032 z m -14.78516,6.15234 2.98828,0 q 4.41406,0 6.38672,-1.42578 1.97266,-1.42578 1.97266,-4.57031 0,-2.83203 -1.85547,-4.21875 -1.85547,-1.38672 -5.78125,-1.38672 l -3.71094,0 0,11.60156 z"
         style="font-style:normal;font-variant:normal;font-weight:normal;font-stretch:normal;line-height:100%;font-family:'Open Sans';-inkscape-font-specification:'Open Sans';text-align:center;text-anchor:middle;fill:#ffffff"
         id="path7733"
         inkscape:connector-curvature="0" />
      <path
         d="m 136.96582,400.9143 q 1.42578,0 2.55859,0.23437 l -0.44921,3.00781 q -1.32813,-0.29296 -2.34375,-0.29296 -2.59766,0 -4.45313,2.10937 -1.83594,2.10938 -1.83594,5.25391 l 0,11.48437 -3.24218,0 0,-21.40625 2.67578,0 0.37109,3.96485 0.15625,0 q 1.19141,-2.08985 2.87109,-3.22266 1.67969,-1.13281 3.69141,-1.13281 z"
         style="font-style:normal;font-variant:normal;font-weight:normal;font-stretch:normal;line-height:100%;font-family:'Open Sans';-inkscape-font-specification:'Open Sans';text-align:center;text-anchor:middle;fill:#ffffff"
         id="path7735"
         inkscape:connector-curvature="0" />
      <path
         d="m 162.00488,411.98852 q 0,5.23437 -2.63672,8.18359 -2.63671,2.92969 -7.28515,2.92969 -2.8711,0 -5.09766,-1.34766 -2.22656,-1.34766 -3.4375,-3.86719 -1.21094,-2.51953 -1.21094,-5.89843 0,-5.23438 2.61719,-8.14454 2.61719,-2.92968 7.26563,-2.92968 4.49218,0 7.1289,2.98828 2.65625,2.98828 2.65625,8.08594 z m -16.30859,0 q 0,4.10156 1.64062,6.25 1.64063,2.14843 4.82422,2.14843 3.1836,0 4.82422,-2.1289 1.66016,-2.14844 1.66016,-6.26953 0,-4.08204 -1.66016,-6.19141 -1.64062,-2.12891 -4.86328,-2.12891 -3.18359,0 -4.80469,2.08985 -1.62109,2.08984 -1.62109,6.23047 z"
         style="font-style:normal;font-variant:normal;font-weight:normal;font-stretch:normal;line-height:100%;font-family:'Open Sans';-inkscape-font-specification:'Open Sans';text-align:center;text-anchor:middle;fill:#ffffff"
         id="path7737"
         inkscape:connector-curvature="0" />
      <path
         d="m 174.58301,420.42602 q 0.85937,0 1.66015,-0.11719 0.80079,-0.13672 1.26954,-0.27344 l 0,2.48047 q -0.52735,0.25391 -1.5625,0.41016 -1.01563,0.17578 -1.83594,0.17578 -6.21094,0 -6.21094,-6.54297 l 0,-12.73438 -3.06641,0 0,-1.5625 3.06641,-1.34765 1.36719,-4.57032 1.875,0 0,4.96094 6.21094,0 0,2.51953 -6.21094,0 0,12.59766 q 0,1.93359 0.91797,2.96875 0.91797,1.03516 2.51953,1.03516 z"
         style="font-style:normal;font-variant:normal;font-weight:normal;font-stretch:normal;line-height:100%;font-family:'Open Sans';-inkscape-font-specification:'Open Sans';text-align:center;text-anchor:middle;fill:#ffffff"
         id="path7739"
         inkscape:connector-curvature="0" />
      <path
         d="m 200.28613,411.98852 q 0,5.23437 -2.63672,8.18359 -2.63671,2.92969 -7.28515,2.92969 -2.8711,0 -5.09766,-1.34766 -2.22656,-1.34766 -3.4375,-3.86719 -1.21094,-2.51953 -1.21094,-5.89843 0,-5.23438 2.61719,-8.14454 2.61719,-2.92968 7.26563,-2.92968 4.49218,0 7.1289,2.98828 2.65625,2.98828 2.65625,8.08594 z m -16.30859,0 q 0,4.10156 1.64062,6.25 1.64063,2.14843 4.82422,2.14843 3.1836,0 4.82422,-2.1289 1.66016,-2.14844 1.66016,-6.26953 0,-4.08204 -1.66016,-6.19141 -1.64062,-2.12891 -4.86328,-2.12891 -3.18359,0 -4.80469,2.08985 -1.62109,2.08984 -1.62109,6.23047 z"
         style="font-style:normal;font-variant:normal;font-weight:normal;font-stretch:normal;line-height:100%;font-family:'Open Sans';-inkscape-font-specification:'Open Sans';text-align:center;text-anchor:middle;fill:#ffffff"
         id="path7741"
         inkscape:connector-curvature="0" />
      <path
         d="m 214.50488,423.1018 q -4.64843,0 -7.20703,-2.85157 -2.53906,-2.87109 -2.53906,-8.10546 0,-5.3711 2.57812,-8.30079 2.59766,-2.92968 7.38282,-2.92968 1.54297,0 3.08593,0.33203 1.54297,0.33203 2.42188,0.78125 l -0.99609,2.7539 q -1.07422,-0.42968 -2.34375,-0.70312 -1.26954,-0.29297 -2.2461,-0.29297 -6.52344,0 -6.52344,8.32031 0,3.94532 1.58204,6.05469 1.60156,2.10938 4.72656,2.10938 2.67578,0 5.48828,-1.15235 l 0,2.8711 q -2.14844,1.11328 -5.41016,1.11328 z"
         style="font-style:normal;font-variant:normal;font-weight:normal;font-stretch:normal;line-height:100%;font-family:'Open Sans';-inkscape-font-specification:'Open Sans';text-align:center;text-anchor:middle;fill:#ffffff"
         id="path7743"
         inkscape:connector-curvature="0" />
      <path
         d="m 243.48926,411.98852 q 0,5.23437 -2.63672,8.18359 -2.63672,2.92969 -7.28516,2.92969 -2.87109,0 -5.09765,-1.34766 -2.22657,-1.34766 -3.4375,-3.86719 -1.21094,-2.51953 -1.21094,-5.89843 0,-5.23438 2.61719,-8.14454 2.61718,-2.92968 7.26562,-2.92968 4.49219,0 7.12891,2.98828 2.65625,2.98828 2.65625,8.08594 z m -16.3086,0 q 0,4.10156 1.64063,6.25 1.64062,2.14843 4.82422,2.14843 3.18359,0 4.82422,-2.1289 1.66015,-2.14844 1.66015,-6.26953 0,-4.08204 -1.66015,-6.19141 -1.64063,-2.12891 -4.86328,-2.12891 -3.1836,0 -4.80469,2.08985 -1.6211,2.08984 -1.6211,6.23047 z"
         style="font-style:normal;font-variant:normal;font-weight:normal;font-stretch:normal;line-height:100%;font-family:'Open Sans';-inkscape-font-specification:'Open Sans';text-align:center;text-anchor:middle;fill:#ffffff"
         id="path7745"
         inkscape:connector-curvature="0" />
      <path
         d="m 252.39551,422.71117 -3.24219,0 0,-30.39062 3.24219,0 0,30.39062 z"
         style="font-style:normal;font-variant:normal;font-weight:normal;font-stretch:normal;line-height:100%;font-family:'Open Sans';-inkscape-font-specification:'Open Sans';text-align:center;text-anchor:middle;fill:#ffffff"
         id="path7747"
         inkscape:connector-curvature="0" />
    </g>
    <circle
       style="opacity:1;fill:#ff9800;fill-opacity:1;stroke:none;stroke-width:5.30000019;stroke-linecap:round;stroke-linejoin:round;stroke-miterlimit:4;stroke-dasharray:none;stroke-dashoffset:0;stroke-opacity:1"
       id="path5809-3-3"
       cx="318.65353"
       cy="381.06622"
       r="65.105232" />
    <g
       transform="translate(253.54827,315.96101)"
       style="font-style:normal;font-weight:normal;font-size:24.18966293px;line-height:0%;font-family:sans-serif;letter-spacing:0px;word-spacing:0px;fill:#ffffff;fill-opacity:1;stroke:none;stroke-width:1px;stroke-linecap:butt;stroke-linejoin:miter;stroke-opacity:1"
       id="flowRoot7378-1">
      <path
         d="m 41.713161,44.813216 4.878091,0 q 3.437106,0 4.972582,1.027588 1.535477,1.027589 1.535477,3.248124 0,1.535477 -0.862229,2.539442 -0.850418,0.992154 -2.492197,1.287438 l 0,0.118114 q 3.933182,0.673247 3.933182,4.133976 0,2.315026 -1.57091,3.614275 -1.5591,1.29925 -4.370203,1.29925 l -6.023793,0 0,-17.268207 z m 2.007931,7.393911 3.30718,0 q 2.126045,0 3.059142,-0.661436 0.933098,-0.673248 0.933098,-2.25597 0,-1.452797 -1.0394,-2.09061 -1.039399,-0.649625 -3.30718,-0.649625 l -2.95284,0 0,5.657641 z m 0,1.700835 0,6.460814 3.602464,0 q 2.090611,0 3.141822,-0.803173 1.063022,-0.814983 1.063022,-2.539442 0,-1.606345 -1.086645,-2.362272 -1.074833,-0.755927 -3.283558,-0.755927 l -3.437105,0 z"
         style="font-style:normal;font-variant:normal;font-weight:normal;font-stretch:normal;line-height:100%;font-family:'Open Sans';-inkscape-font-specification:'Open Sans';text-align:center;text-anchor:middle;fill:#ffffff"
         id="path7771"
         inkscape:connector-curvature="0" />
      <path
         d="m 62.572021,62.31765 q -2.87016,0 -4.535562,-1.748081 -1.65359,-1.748081 -1.65359,-4.854469 0,-3.13001 1.535477,-4.972582 1.547288,-1.842572 4.145787,-1.842572 2.43314,0 3.850503,1.606345 1.417363,1.594534 1.417363,4.216655 l 0,1.240193 -8.917576,0 q 0.05906,2.279592 1.145702,3.460728 1.098456,1.181136 3.082764,1.181136 2.090611,0 4.133976,-0.874041 l 0,1.748081 q -1.0394,0.448832 -1.972497,0.637814 -0.921286,0.200793 -2.232347,0.200793 z M 62.04051,50.541725 q -1.559099,0 -2.492197,1.015777 -0.921286,1.015777 -1.086645,2.811103 l 6.767909,0 q 0,-1.854383 -0.826795,-2.834726 -0.826795,-0.992154 -2.362272,-0.992154 z"
         style="font-style:normal;font-variant:normal;font-weight:normal;font-stretch:normal;line-height:100%;font-family:'Open Sans';-inkscape-font-specification:'Open Sans';text-align:center;text-anchor:middle;fill:#ffffff"
         id="path7773"
         inkscape:connector-curvature="0" />
      <path
         d="m 74.844023,60.699494 q 0.519699,0 1.003965,-0.07087 0.484266,-0.08268 0.767738,-0.165359 l 0,1.500042 q -0.318906,0.153548 -0.944908,0.248039 -0.614191,0.106302 -1.110268,0.106302 -3.756012,0 -3.756012,-3.956805 l 0,-7.701006 -1.854383,0 0,-0.944909 1.854383,-0.814984 0.826795,-2.763858 1.13389,0 0,3.000085 3.756013,0 0,1.523666 -3.756013,0 0,7.618326 q 0,1.169325 0.555134,1.795327 0.555134,0.626002 1.523666,0.626002 z"
         style="font-style:normal;font-variant:normal;font-weight:normal;font-stretch:normal;line-height:100%;font-family:'Open Sans';-inkscape-font-specification:'Open Sans';text-align:center;text-anchor:middle;fill:#ffffff"
         id="path7775"
         inkscape:connector-curvature="0" />
      <path
         d="m 87.175081,62.081423 -0.389774,-1.842572 -0.09449,0 q -0.968532,1.21657 -1.937063,1.65359 -0.95672,0.425209 -2.397706,0.425209 -1.925251,0 -3.023708,-0.992154 -1.086645,-0.992154 -1.086645,-2.822915 0,-3.921371 6.271832,-4.110353 l 2.196912,-0.07087 0,-0.803172 q 0,-1.523666 -0.661436,-2.244159 -0.649624,-0.732304 -2.09061,-0.732304 -1.618156,0 -3.661521,0.992154 l -0.60238,-1.500042 q 0.95672,-0.5197 2.090611,-0.814984 1.145702,-0.295284 2.291403,-0.295284 2.315027,0 3.425294,1.027588 1.12208,1.027588 1.12208,3.295369 l 0,8.834897 -1.452798,0 z m -4.429259,-1.381929 q 1.83076,0 2.87016,-1.003966 1.051211,-1.003965 1.051211,-2.811103 l 0,-1.169325 -1.960686,0.08268 q -2.338649,0.08268 -3.378048,0.732304 -1.027588,0.637814 -1.027588,1.99612 0,1.063022 0.637813,1.618156 0.649625,0.555134 1.807138,0.555134 z"
         style="font-style:normal;font-variant:normal;font-weight:normal;font-stretch:normal;line-height:100%;font-family:'Open Sans';-inkscape-font-specification:'Open Sans';text-align:center;text-anchor:middle;fill:#ffffff"
         id="path7777"
         inkscape:connector-curvature="0" />
      <path
         d="m 34.732648,69.002883 2.161479,0 -6.224587,17.268207 -1.984308,0 -6.189152,-17.268207 2.126045,0 3.968616,11.173545 q 0.685059,1.925252 1.086645,3.744201 0.425209,-1.91344 1.110268,-3.815069 l 3.944994,-11.102677 z"
         style="font-style:normal;font-variant:normal;font-weight:normal;font-stretch:normal;line-height:100%;font-family:'Open Sans';-inkscape-font-specification:'Open Sans';text-align:center;text-anchor:middle;fill:#ffffff"
         id="path7779"
         inkscape:connector-curvature="0" />
      <path
         d="m 44.453396,86.507317 q -2.87016,0 -4.535562,-1.748081 -1.65359,-1.748082 -1.65359,-4.854469 0,-3.13001 1.535477,-4.972582 1.547288,-1.842572 4.145787,-1.842572 2.43314,0 3.850503,1.606345 1.417363,1.594533 1.417363,4.216655 l 0,1.240193 -8.917576,0 q 0.05906,2.279592 1.145702,3.460728 1.098456,1.181136 3.082764,1.181136 2.090611,0 4.133976,-0.874041 l 0,1.748081 q -1.0394,0.448832 -1.972497,0.637814 -0.921286,0.200793 -2.232347,0.200793 z M 43.921885,74.731392 q -1.559099,0 -2.492197,1.015777 -0.921286,1.015777 -1.086645,2.811103 l 6.767909,0 q 0,-1.854383 -0.826795,-2.834726 -0.826795,-0.992154 -2.362272,-0.992154 z"
         style="font-style:normal;font-variant:normal;font-weight:normal;font-stretch:normal;line-height:100%;font-family:'Open Sans';-inkscape-font-specification:'Open Sans';text-align:center;text-anchor:middle;fill:#ffffff"
         id="path7781"
         inkscape:connector-curvature="0" />
      <path
         d="m 58.449856,73.089613 q 0.862229,0 1.547288,0.141736 l -0.271661,1.81895 q -0.803173,-0.177171 -1.417363,-0.177171 -1.570911,0 -2.69299,1.275627 -1.110268,1.275627 -1.110268,3.177256 l 0,6.945079 -1.960685,0 0,-12.94525 1.618156,0 0.224416,2.397706 0.09449,0 q 0.720492,-1.263815 1.736269,-1.948874 1.015777,-0.685059 2.232347,-0.685059 z"
         style="font-style:normal;font-variant:normal;font-weight:normal;font-stretch:normal;line-height:100%;font-family:'Open Sans';-inkscape-font-specification:'Open Sans';text-align:center;text-anchor:middle;fill:#ffffff"
         id="path7783"
         inkscape:connector-curvature="0" />
      <path
         d="m 70.769104,82.739493 q 0,1.807138 -1.346495,2.787481 -1.346495,0.980343 -3.779635,0.980343 -2.574876,0 -4.015862,-0.814984 l 0,-1.818949 q 0.933097,0.472454 1.996119,0.744115 1.074834,0.271662 2.066988,0.271662 1.535477,0 2.362272,-0.484266 0.826795,-0.496077 0.826795,-1.500043 0,-0.755927 -0.661436,-1.287438 -0.649625,-0.543322 -2.551253,-1.275627 -1.807138,-0.673247 -2.574877,-1.169324 -0.755927,-0.507889 -1.13389,-1.145702 -0.366152,-0.637813 -0.366152,-1.523665 0,-1.582722 1.287438,-2.492197 1.287438,-0.921286 3.531596,-0.921286 2.090611,0 4.08673,0.850418 l -0.69687,1.594533 q -1.948874,-0.803172 -3.531596,-0.803172 -1.39374,0 -2.102422,0.43702 -0.708682,0.43702 -0.708682,1.204759 0,0.5197 0.25985,0.885852 0.271662,0.366152 0.86223,0.69687 0.590567,0.330718 2.26778,0.95672 2.303215,0.838606 3.106388,1.689024 0.814984,0.850418 0.814984,2.137856 z"
         style="font-style:normal;font-variant:normal;font-weight:normal;font-stretch:normal;line-height:100%;font-family:'Open Sans';-inkscape-font-specification:'Open Sans';text-align:center;text-anchor:middle;fill:#ffffff"
         id="path7785"
         inkscape:connector-curvature="0" />
      <path
         d="m 75.907044,86.27109 -1.960686,0 0,-12.94525 1.960686,0 0,12.94525 z M 73.780999,69.817867 q 0,-0.673248 0.330718,-0.980343 0.330718,-0.318907 0.826795,-0.318907 0.472455,0 0.814984,0.318907 0.34253,0.318907 0.34253,0.980343 0,0.661436 -0.34253,0.992154 -0.342529,0.318906 -0.814984,0.318906 -0.496077,0 -0.826795,-0.318906 -0.330718,-0.330718 -0.330718,-0.992154 z"
         style="font-style:normal;font-variant:normal;font-weight:normal;font-stretch:normal;line-height:100%;font-family:'Open Sans';-inkscape-font-specification:'Open Sans';text-align:center;text-anchor:middle;fill:#ffffff"
         id="path7787"
         inkscape:connector-curvature="0" />
      <path
         d="m 91.261811,79.786654 q 0,3.165444 -1.594534,4.948959 -1.594533,1.771704 -4.405637,1.771704 -1.73627,0 -3.082764,-0.814984 -1.346495,-0.814984 -2.0788,-2.338649 -0.732304,-1.523665 -0.732304,-3.56703 0,-3.165445 1.582722,-4.925337 1.582722,-1.771704 4.393826,-1.771704 2.716612,0 4.311146,1.807138 1.606345,1.807138 1.606345,4.889903 z m -9.862485,0 q 0,2.480385 0.992154,3.779634 0.992154,1.29925 2.917406,1.29925 1.925251,0 2.917405,-1.287438 1.003966,-1.29925 1.003966,-3.791446 0,-2.468574 -1.003966,-3.744201 -0.992154,-1.287438 -2.941028,-1.287438 -1.925252,0 -2.905594,1.263815 -0.980343,1.263815 -0.980343,3.767824 z"
         style="font-style:normal;font-variant:normal;font-weight:normal;font-stretch:normal;line-height:100%;font-family:'Open Sans';-inkscape-font-specification:'Open Sans';text-align:center;text-anchor:middle;fill:#ffffff"
         id="path7789"
         inkscape:connector-curvature="0" />
      <path
         d="m 103.54563,86.27109 0,-8.374254 q 0,-1.582722 -0.7205,-2.362272 -0.72049,-0.779549 -2.25597,-0.779549 -2.031549,0 -2.976458,1.098456 -0.944909,1.098456 -0.944909,3.626087 l 0,6.791532 -1.960685,0 0,-12.94525 1.594533,0 0.318907,1.771704 0.09449,0 q 0.602379,-0.95672 1.689024,-1.47642 1.086645,-0.531511 2.421328,-0.531511 2.33865,0 3.51979,1.133891 1.18113,1.122079 1.18113,3.602464 l 0,8.445122 -1.96068,0 z"
         style="font-style:normal;font-variant:normal;font-weight:normal;font-stretch:normal;line-height:100%;font-family:'Open Sans';-inkscape-font-specification:'Open Sans';text-align:center;text-anchor:middle;fill:#ffffff"
         id="path7791"
         inkscape:connector-curvature="0" />
    </g>
    <circle
       style="opacity:1;fill:#ffc107;fill-opacity:1;stroke:none;stroke-width:5.30000019;stroke-linecap:round;stroke-linejoin:round;stroke-miterlimit:4;stroke-dasharray:none;stroke-dashoffset:0;stroke-opacity:1"
       id="path5809-3-5"
       cx="515.1778"
       cy="381.06622"
       r="65.105232" />
    <g
       transform="translate(450.07256,315.96099)"
       style="font-style:normal;font-weight:normal;font-size:24.18966293px;line-height:0%;font-family:sans-serif;letter-spacing:0px;word-spacing:0px;fill:#ffffff;fill-opacity:1;stroke:none;stroke-width:1px;stroke-linecap:butt;stroke-linejoin:miter;stroke-opacity:1"
       id="flowRoot7378-12">
      <path
         d="m 48.339333,53.033922 5.870246,0 0,8.397876 q -1.370118,0.43702 -2.787481,0.661436 -1.417363,0.224416 -3.283558,0.224416 -3.921371,0 -6.106472,-2.326838 -2.185102,-2.338649 -2.185102,-6.543493 0,-2.692989 1.074834,-4.712732 1.086645,-2.031553 3.118199,-3.094576 2.031553,-1.074833 4.759977,-1.074833 2.763858,0 5.149753,1.015776 l -0.77955,1.771704 q -2.338649,-0.992154 -4.500128,-0.992154 -3.153632,0 -4.925336,1.878006 -1.771704,1.878006 -1.771704,5.208809 0,3.496163 1.700836,5.303301 1.712647,1.807138 5.019827,1.807138 1.795327,0 3.507974,-0.413398 l 0,-5.315112 -3.862315,0 0,-1.795326 z"
         style="font-style:normal;font-variant:normal;font-weight:normal;font-stretch:normal;line-height:100%;font-family:'Open Sans';-inkscape-font-specification:'Open Sans';text-align:center;text-anchor:middle;fill:#ffffff"
         id="path7750"
         inkscape:connector-curvature="0" />
      <path
         d="m 69.245438,55.596987 q 0,3.165444 -1.594533,4.948959 -1.594534,1.771704 -4.405637,1.771704 -1.73627,0 -3.082765,-0.814984 -1.346495,-0.814984 -2.078799,-2.338649 -0.732304,-1.523665 -0.732304,-3.56703 0,-3.165444 1.582722,-4.925337 1.582722,-1.771704 4.393825,-1.771704 2.716613,0 4.311146,1.807138 1.606345,1.807138 1.606345,4.889903 z m -9.862484,0 q 0,2.480385 0.992154,3.779635 0.992154,1.299249 2.917405,1.299249 1.925252,0 2.917406,-1.287438 1.003965,-1.299249 1.003965,-3.791446 0,-2.468574 -1.003965,-3.744201 -0.992154,-1.287438 -2.941028,-1.287438 -1.925252,0 -2.905595,1.263815 -0.980342,1.263816 -0.980342,3.767824 z"
         style="font-style:normal;font-variant:normal;font-weight:normal;font-stretch:normal;line-height:100%;font-family:'Open Sans';-inkscape-font-specification:'Open Sans';text-align:center;text-anchor:middle;fill:#ffffff"
         id="path7752"
         inkscape:connector-curvature="0" />
      <path
         d="m 74.631417,62.081423 -1.960685,0 0,-18.378475 1.960685,0 0,18.378475 z"
         style="font-style:normal;font-variant:normal;font-weight:normal;font-stretch:normal;line-height:100%;font-family:'Open Sans';-inkscape-font-specification:'Open Sans';text-align:center;text-anchor:middle;fill:#ffffff"
         id="path7754"
         inkscape:connector-curvature="0" />
      <path
         d="m 87.623912,60.345153 -0.106302,0 q -1.358307,1.972497 -4.063108,1.972497 -2.539442,0 -3.956805,-1.73627 -1.405552,-1.73627 -1.405552,-4.937148 0,-3.200878 1.417363,-4.972582 1.417364,-1.771704 3.944994,-1.771704 2.633933,0 4.039485,1.91344 l 0.153548,0 -0.08268,-0.933097 -0.04724,-0.909475 0,-5.267866 1.960685,0 0,18.378475 -1.594533,0 -0.25985,-1.73627 z m -3.921371,0.330718 q 2.007931,0 2.905594,-1.086645 0.909475,-1.098456 0.909475,-3.531596 l 0,-0.413398 q 0,-2.752046 -0.921286,-3.921371 -0.909475,-1.181136 -2.917406,-1.181136 -1.724458,0 -2.645744,1.346495 -0.909475,1.334684 -0.909475,3.779635 0,2.480385 0.909475,3.744201 0.909474,1.263815 2.669367,1.263815 z"
         style="font-style:normal;font-variant:normal;font-weight:normal;font-stretch:normal;line-height:100%;font-family:'Open Sans';-inkscape-font-specification:'Open Sans';text-align:center;text-anchor:middle;fill:#ffffff"
         id="path7756"
         inkscape:connector-curvature="0" />
      <path
         d="m 35.583066,86.27109 -5.858434,-15.307522 -0.09449,0 q 0.165359,1.81895 0.165359,4.322958 l 0,10.984564 -1.854383,0 0,-17.268207 3.023707,0 5.46866,14.244499 0.09449,0 5.515905,-14.244499 3.000085,0 0,17.268207 -2.007931,0 0,-11.1263 q 0,-1.913441 0.165359,-4.157599 l -0.09449,0 -5.905679,15.283899 -1.618156,0 z"
         style="font-style:normal;font-variant:normal;font-weight:normal;font-stretch:normal;line-height:100%;font-family:'Open Sans';-inkscape-font-specification:'Open Sans';text-align:center;text-anchor:middle;fill:#ffffff"
         id="path7758"
         inkscape:connector-curvature="0" />
      <path
         d="m 57.434079,86.27109 -0.389775,-1.842572 -0.09449,0 q -0.968531,1.21657 -1.937062,1.65359 -0.956721,0.425209 -2.397706,0.425209 -1.925252,0 -3.023708,-0.992154 -1.086645,-0.992155 -1.086645,-2.822915 0,-3.921371 6.271831,-4.110353 l 2.196913,-0.07087 0,-0.803173 q 0,-1.523665 -0.661436,-2.244158 -0.649625,-0.732304 -2.09061,-0.732304 -1.618157,0 -3.661522,0.992154 L 49.95749,74.223502 q 0.95672,-0.5197 2.09061,-0.814984 1.145702,-0.295284 2.291404,-0.295284 2.315026,0 3.425294,1.027588 1.122079,1.027588 1.122079,3.295369 l 0,8.834897 -1.452797,0 z M 53.00482,84.889161 q 1.83076,0 2.87016,-1.003966 1.051211,-1.003965 1.051211,-2.811103 l 0,-1.169325 -1.960686,0.08268 q -2.338649,0.08268 -3.378049,0.732304 -1.027588,0.637813 -1.027588,1.99612 0,1.063022 0.637814,1.618156 0.649624,0.555134 1.807138,0.555134 z"
         style="font-style:normal;font-variant:normal;font-weight:normal;font-stretch:normal;line-height:100%;font-family:'Open Sans';-inkscape-font-specification:'Open Sans';text-align:center;text-anchor:middle;fill:#ffffff"
         id="path7760"
         inkscape:connector-curvature="0" />
      <path
         d="m 71.288803,82.739493 q 0,1.807138 -1.346495,2.787481 -1.346495,0.980343 -3.779635,0.980343 -2.574876,0 -4.015862,-0.814984 l 0,-1.818949 q 0.933097,0.472454 1.99612,0.744115 1.074833,0.271662 2.066987,0.271662 1.535477,0 2.362272,-0.484266 0.826795,-0.496077 0.826795,-1.500043 0,-0.755927 -0.661436,-1.287438 -0.649625,-0.543322 -2.551253,-1.275627 -1.807138,-0.673247 -2.574877,-1.169324 -0.755927,-0.507889 -1.13389,-1.145702 -0.366152,-0.637813 -0.366152,-1.523665 0,-1.582722 1.287438,-2.492197 1.287438,-0.921286 3.531596,-0.921286 2.090611,0 4.08673,0.850418 l -0.69687,1.594533 q -1.948874,-0.803172 -3.531596,-0.803172 -1.39374,0 -2.102422,0.43702 -0.708682,0.43702 -0.708682,1.204759 0,0.5197 0.25985,0.885852 0.271662,0.366152 0.86223,0.69687 0.590568,0.330718 2.26778,0.95672 2.303215,0.838606 3.106388,1.689024 0.814984,0.850418 0.814984,2.137856 z"
         style="font-style:normal;font-variant:normal;font-weight:normal;font-stretch:normal;line-height:100%;font-family:'Open Sans';-inkscape-font-specification:'Open Sans';text-align:center;text-anchor:middle;fill:#ffffff"
         id="path7762"
         inkscape:connector-curvature="0" />
      <path
         d="m 78.647278,84.889161 q 0.5197,0 1.003966,-0.07087 0.484266,-0.08268 0.767738,-0.165359 l 0,1.500043 q -0.318906,0.153548 -0.944909,0.248038 -0.61419,0.106303 -1.110267,0.106303 -3.756012,0 -3.756012,-3.956805 l 0,-7.701006 -1.854384,0 0,-0.944909 1.854384,-0.814984 0.826795,-2.763858 1.13389,0 0,3.000085 3.756012,0 0,1.523666 -3.756012,0 0,7.618326 q 0,1.169325 0.555134,1.795327 0.555134,0.626002 1.523665,0.626002 z"
         style="font-style:normal;font-variant:normal;font-weight:normal;font-stretch:normal;line-height:100%;font-family:'Open Sans';-inkscape-font-specification:'Open Sans';text-align:center;text-anchor:middle;fill:#ffffff"
         id="path7764"
         inkscape:connector-curvature="0" />
      <path
         d="m 88.486142,86.507317 q -2.87016,0 -4.535561,-1.748081 -1.653591,-1.748082 -1.653591,-4.854469 0,-3.13001 1.535477,-4.972582 1.547288,-1.842572 4.145787,-1.842572 2.43314,0 3.850503,1.606345 1.417363,1.594533 1.417363,4.216655 l 0,1.240193 -8.917576,0 q 0.05906,2.279592 1.145702,3.460728 1.098456,1.181136 3.082765,1.181136 2.09061,0 4.133975,-0.874041 l 0,1.748081 q -1.039399,0.448832 -1.972497,0.637814 -0.921286,0.200793 -2.232347,0.200793 z M 87.954631,74.731392 q -1.559099,0 -2.492196,1.015777 -0.921286,1.015777 -1.086645,2.811103 l 6.767908,0 q 0,-1.854383 -0.826795,-2.834726 -0.826795,-0.992154 -2.362272,-0.992154 z"
         style="font-style:normal;font-variant:normal;font-weight:normal;font-stretch:normal;line-height:100%;font-family:'Open Sans';-inkscape-font-specification:'Open Sans';text-align:center;text-anchor:middle;fill:#ffffff"
         id="path7766"
         inkscape:connector-curvature="0" />
      <path
         d="m 102.4826,73.089613 q 0.86223,0 1.54729,0.141736 l -0.27166,1.81895 q -0.80317,-0.177171 -1.41736,-0.177171 -1.57091,0 -2.692993,1.275627 -1.110268,1.275627 -1.110268,3.177256 l 0,6.945079 -1.960685,0 0,-12.94525 1.618156,0 0.224416,2.397706 0.09449,0 q 0.720493,-1.263815 1.736274,-1.948874 1.01577,-0.685059 2.23234,-0.685059 z"
         style="font-style:normal;font-variant:normal;font-weight:normal;font-stretch:normal;line-height:100%;font-family:'Open Sans';-inkscape-font-specification:'Open Sans';text-align:center;text-anchor:middle;fill:#ffffff"
         id="path7768"
         inkscape:connector-curvature="0" />
    </g>
    <path
       style="fill:#ffffff;fill-opacity:1;fill-rule:evenodd;stroke:#ffffff;stroke-width:2.20000005;stroke-linecap:butt;stroke-linejoin:miter;stroke-miterlimit:4;stroke-dasharray:none;stroke-opacity:1;marker-end:url(#marker7620)"
       d="m 175.22119,381.06622 78.32711,0"
       id="path7454"
       inkscape:connector-curvature="0" />
    <path
       style="fill:#ffffff;fill-opacity:1;fill-rule:evenodd;stroke:#ffffff;stroke-width:2.20000005;stroke-linecap:butt;stroke-linejoin:miter;stroke-miterlimit:4;stroke-dasharray:none;stroke-opacity:1;marker-end:url(#Arrow1Lend)"
       d="m 383.75877,381.06622 66.31379,0"
       id="path7456"
       inkscape:connector-curvature="0" />
  </g>
</svg>
