<?xml version="1.0" encoding="UTF-8" standalone="no"?>
<!-- Created with Inkscape (http://www.inkscape.org/) -->

<svg
   xmlns:dc="http://purl.org/dc/elements/1.1/"
   xmlns:cc="http://creativecommons.org/ns#"
   xmlns:rdf="http://www.w3.org/1999/02/22-rdf-syntax-ns#"
   xmlns:svg="http://www.w3.org/2000/svg"
   xmlns="http://www.w3.org/2000/svg"
   xmlns:sodipodi="http://sodipodi.sourceforge.net/DTD/sodipodi-0.dtd"
   xmlns:inkscape="http://www.inkscape.org/namespaces/inkscape"
   width="65.549698mm"
   height="29.50791mm"
   viewBox="0 0 232.26269 104.55558"
   id="svg7401"
   version="1.1"
   inkscape:version="0.91 r13725"
   sodipodi:docname="script.svg">
  <defs
     id="defs7403">
    <clipPath
       clipPathUnits="userSpaceOnUse"
       id="clipPath892">
      <path
         d="M 0,936 612,936 612,0 0,0 0,936 Z"
         id="path894"
         inkscape:connector-curvature="0" />
    </clipPath>
    <clipPath
       clipPathUnits="userSpaceOnUse"
       id="clipPath8555">
      <path
         style="fill:#4d4d4d;fill-rule:evenodd;stroke:#000000;stroke-width:1px;stroke-linecap:butt;stroke-linejoin:miter;stroke-opacity:1"
         d="M 473.26218,234.15758 681.3536,427.09671 c 0,0 -219.2031,7.07107 -221.22341,1.01015 -2.0203,-6.06091 13.13199,-193.94928 13.13199,-193.94928 z"
         id="path8557"
         inkscape:connector-curvature="0" />
    </clipPath>
  </defs>
  <sodipodi:namedview
     id="base"
     pagecolor="#ffffff"
     bordercolor="#666666"
     borderopacity="1.0"
     inkscape:pageopacity="0.0"
     inkscape:pageshadow="2"
     inkscape:zoom="0.9899495"
     inkscape:cx="38.575642"
     inkscape:cy="-41.075892"
     inkscape:document-units="px"
     inkscape:current-layer="layer1"
     showgrid="false"
     fit-margin-top="0"
     fit-margin-left="0"
     fit-margin-right="0"
     fit-margin-bottom="0"
     inkscape:window-width="1366"
     inkscape:window-height="713"
     inkscape:window-x="0"
     inkscape:window-y="31"
     inkscape:window-maximized="1"
     inkscape:snap-bbox="true"
     inkscape:bbox-nodes="true"
     inkscape:bbox-paths="true"
     inkscape:snap-bbox-edge-midpoints="true"
     inkscape:snap-bbox-midpoints="true"
     inkscape:object-paths="true"
     inkscape:snap-intersection-paths="true"
     inkscape:object-nodes="true"
     inkscape:snap-smooth-nodes="true"
     inkscape:snap-midpoints="true"
     inkscape:snap-object-midpoints="true"
     inkscape:snap-global="true"
     showguides="true"
     inkscape:guide-bbox="true">
    <sodipodi:guide
       position="-165.57292,115.7651"
       orientation="1,0"
       id="guide4151" />
  </sodipodi:namedview>
  <metadata
     id="metadata7406">
    <rdf:RDF>
      <cc:Work
         rdf:about="">
        <dc:format>image/svg+xml</dc:format>
        <dc:type
           rdf:resource="http://purl.org/dc/dcmitype/StillImage" />
        <dc:title />
      </cc:Work>
    </rdf:RDF>
  </metadata>
  <g
     inkscape:label="Layer 1"
     inkscape:groupmode="layer"
     id="layer1"
     transform="translate(-153.41471,-264.26961)">
    <path
       style="opacity:1;fill:#ffffff;fill-opacity:1;stroke:none;stroke-width:3;stroke-linecap:round;stroke-linejoin:round;stroke-miterlimit:4;stroke-dasharray:none;stroke-dashoffset:0;stroke-opacity:1"
       d="M 153.47266 0 L 153.47266 14.935547 L 168.4082 14.935547 L 168.4082 0 L 153.47266 0 z M 153.47266 14.935547 L 138.53711 14.935547 L 138.53711 29.873047 L 153.47266 29.873047 L 153.47266 14.935547 z M 29.873047 14.935547 L 29.873047 29.873047 L 44.808594 29.873047 L 44.808594 14.935547 L 29.873047 14.935547 z M 29.873047 29.873047 L 14.935547 29.873047 L 14.935547 44.808594 L 29.873047 44.808594 L 29.873047 29.873047 z M 14.935547 44.808594 L 0 44.808594 L 0 59.746094 L 14.935547 59.746094 L 14.935547 44.808594 z M 14.935547 59.746094 L 14.935547 74.681641 L 29.873047 74.681641 L 29.873047 59.746094 L 14.935547 59.746094 z M 29.873047 74.681641 L 29.873047 89.619141 L 44.808594 89.619141 L 44.808594 74.681641 L 29.873047 74.681641 z M 187.45312 14.9375 L 187.45312 29.873047 L 202.39062 29.873047 L 202.39062 14.9375 L 187.45312 14.9375 z M 202.39062 29.873047 L 202.39062 44.808594 L 217.32617 44.808594 L 217.32617 29.873047 L 202.39062 29.873047 z M 217.32617 44.808594 L 217.32617 59.746094 L 232.26367 59.746094 L 232.26367 44.808594 L 217.32617 44.808594 z M 217.32617 59.746094 L 202.39062 59.746094 L 202.39062 74.681641 L 217.32617 74.681641 L 217.32617 59.746094 z M 202.39062 74.681641 L 187.45312 74.681641 L 187.45312 89.619141 L 202.39062 89.619141 L 202.39062 74.681641 z M 123.59961 29.873047 L 123.59961 44.808594 L 138.53516 44.808594 L 138.53516 29.873047 L 123.59961 29.873047 z M 123.59961 44.808594 L 108.66406 44.808594 L 108.66406 59.746094 L 123.59961 59.746094 L 123.59961 44.808594 z M 108.66406 59.746094 L 93.726562 59.746094 L 93.726562 74.681641 L 108.66406 74.681641 L 108.66406 59.746094 z M 93.726562 74.681641 L 78.791016 74.681641 L 78.791016 89.619141 L 93.726562 89.619141 L 93.726562 74.681641 z M 78.791016 89.619141 L 63.853516 89.619141 L 63.853516 104.55469 L 78.791016 104.55469 L 78.791016 89.619141 z "
       transform="translate(153.41471,264.26961)"
       id="rect4990" />
  </g>
</svg>
