<?xml version="1.0" encoding="UTF-8" standalone="no"?>
<!-- Created with Inkscape (http://www.inkscape.org/) -->

<svg
   xmlns:dc="http://purl.org/dc/elements/1.1/"
   xmlns:cc="http://creativecommons.org/ns#"
   xmlns:rdf="http://www.w3.org/1999/02/22-rdf-syntax-ns#"
   xmlns:svg="http://www.w3.org/2000/svg"
   xmlns="http://www.w3.org/2000/svg"
   xmlns:sodipodi="http://sodipodi.sourceforge.net/DTD/sodipodi-0.dtd"
   xmlns:inkscape="http://www.inkscape.org/namespaces/inkscape"
   width="158.44762mm"
   height="42.736507mm"
   viewBox="0 0 561.42856 151.42857"
   id="svg2"
   version="1.1"
   inkscape:version="0.91 r13725"
   sodipodi:docname="sgm.svg">
  <defs
     id="defs4" />
  <sodipodi:namedview
     id="base"
     pagecolor="#ffffff"
     bordercolor="#666666"
     borderopacity="1.0"
     inkscape:pageopacity="0.0"
     inkscape:pageshadow="2"
     inkscape:zoom="0.98994949"
     inkscape:cx="271.26921"
     inkscape:cy="54.125671"
     inkscape:document-units="px"
     inkscape:current-layer="layer1"
     showgrid="false"
     inkscape:snap-bbox="true"
     inkscape:bbox-paths="true"
     inkscape:bbox-nodes="true"
     inkscape:snap-bbox-edge-midpoints="true"
     inkscape:snap-bbox-midpoints="true"
     inkscape:snap-intersection-paths="true"
     inkscape:object-paths="true"
     inkscape:object-nodes="true"
     inkscape:snap-smooth-nodes="true"
     inkscape:snap-object-midpoints="true"
     inkscape:snap-midpoints="true"
     fit-margin-top="0"
     fit-margin-left="0"
     fit-margin-right="0"
     fit-margin-bottom="0"
     inkscape:window-width="1301"
     inkscape:window-height="744"
     inkscape:window-x="65"
     inkscape:window-y="24"
     inkscape:window-maximized="1" />
  <metadata
     id="metadata7">
    <rdf:RDF>
      <cc:Work
         rdf:about="">
        <dc:format>image/svg+xml</dc:format>
        <dc:type
           rdf:resource="http://purl.org/dc/dcmitype/StillImage" />
        <dc:title></dc:title>
      </cc:Work>
    </rdf:RDF>
  </metadata>
  <g
     inkscape:label="Layer 1"
     inkscape:groupmode="layer"
     id="layer1"
     transform="translate(-18.571426,-130.93363)">
    <circle
       style="opacity:1;fill:#2196f3;fill-opacity:1;stroke:none;stroke-width:5.30000019;stroke-linecap:round;stroke-linejoin:round;stroke-miterlimit:4;stroke-dasharray:none;stroke-dashoffset:0;stroke-opacity:1"
       id="path4136"
       cx="94.285713"
       cy="206.64792"
       r="75.714287" />
    <circle
       style="opacity:1;fill:#a73fb8;fill-opacity:1;stroke:none;stroke-width:5.30000019;stroke-linecap:round;stroke-linejoin:round;stroke-miterlimit:4;stroke-dasharray:none;stroke-dashoffset:0;stroke-opacity:1"
       id="path4136-6"
       cx="300"
       cy="206.64792"
       r="75.714287" />
    <circle
       style="opacity:1;fill:#ff9800;fill-opacity:1;stroke:none;stroke-width:5.30000019;stroke-linecap:round;stroke-linejoin:round;stroke-miterlimit:4;stroke-dasharray:none;stroke-dashoffset:0;stroke-opacity:1"
       id="path4136-6-6"
       cx="504.28571"
       cy="206.64792"
       r="75.714287" />
    <g
       transform="translate(-26.972099,138.94143)"
       style="font-style:normal;font-weight:normal;font-size:26.17337227px;line-height:0%;font-family:sans-serif;letter-spacing:0px;word-spacing:0px;fill:#ffffff;fill-opacity:1;stroke:none;stroke-width:1px;stroke-linecap:butt;stroke-linejoin:miter;stroke-opacity:1"
       id="flowRoot4233">
      <path
         d="m 80.080759,72.62039 q 0,2.466533 -1.789195,3.84677 -1.789196,1.380236 -4.856388,1.380236 -3.322791,0 -5.111987,-0.856258 l 0,-2.095914 q 1.150198,0.485639 2.504874,0.766798 1.354676,0.281159 2.683793,0.281159 2.172594,0 3.271672,-0.817918 1.099077,-0.830698 1.099077,-2.300394 0,-0.971277 -0.396179,-1.584716 -0.383399,-0.626218 -1.303557,-1.150197 -0.907378,-0.523978 -2.773253,-1.188537 -2.607113,-0.932937 -3.73175,-2.210934 -1.111857,-1.277997 -1.111857,-3.335571 0,-2.159815 1.623056,-3.437811 1.623055,-1.277997 4.294069,-1.277997 2.786032,0 5.124766,1.022397 l -0.677338,1.891435 q -2.313174,-0.971277 -4.498548,-0.971277 -1.725296,0 -2.696573,0.741238 -0.971278,0.741238 -0.971278,2.057575 0,0.971277 0.357839,1.597496 0.357839,0.613438 1.201317,1.137417 0.856258,0.511198 2.607113,1.137417 2.939393,1.047957 4.03847,2.249274 1.111857,1.201317 1.111857,3.118312 z"
         style="font-style:normal;font-variant:normal;font-weight:normal;font-stretch:normal;font-family:'Open Sans';-inkscape-font-specification:'Open Sans';text-align:center;text-anchor:middle;fill:#ffffff"
         id="path5206" />
      <path
         d="m 95.672319,70.575595 q 0,3.425031 -1.725296,5.354806 -1.725295,1.916995 -4.766927,1.916995 -1.878655,0 -3.335572,-0.881818 -1.456916,-0.881817 -2.249274,-2.530433 -0.792358,-1.648616 -0.792358,-3.85955 0,-3.425031 1.712516,-5.329246 1.712515,-1.916995 4.754148,-1.916995 2.939392,0 4.664688,1.955335 1.738075,1.955335 1.738075,5.290906 z m -10.671272,0 q 0,2.683793 1.073517,4.089589 1.073517,1.405797 3.156652,1.405797 2.083134,0 3.156652,-1.393017 1.086297,-1.405796 1.086297,-4.102369 0,-2.671013 -1.086297,-4.051249 -1.073518,-1.393017 -3.182212,-1.393017 -2.083135,0 -3.143872,1.367457 -1.060737,1.367456 -1.060737,4.076809 z"
         style="font-style:normal;font-variant:normal;font-weight:normal;font-stretch:normal;font-family:'Open Sans';-inkscape-font-specification:'Open Sans';text-align:center;text-anchor:middle;fill:#ffffff"
         id="path5208" />
      <path
         d="m 105.69181,65.233569 -3.56561,0 0,12.358228 -2.12147,0 0,-12.358228 -2.504875,0 0,-0.958498 2.504875,-0.766798 0,-0.779578 q 0,-5.163106 4.51133,-5.163106 1.11185,0 2.60711,0.447299 l -0.54954,1.699735 q -1.22688,-0.396179 -2.09591,-0.396179 -1.20132,0 -1.77642,0.805138 -0.5751,0.792358 -0.5751,2.555993 l 0,0.907378 3.56561,0 0,1.648616 z"
         style="font-style:normal;font-variant:normal;font-weight:normal;font-stretch:normal;font-family:'Open Sans';-inkscape-font-specification:'Open Sans';text-align:center;text-anchor:middle;fill:#ffffff"
         id="path5210" />
      <path
         d="m 112.79748,76.096541 q 0.56231,0 1.08629,-0.07668 0.52398,-0.08946 0.8307,-0.17892 l 0,1.623056 q -0.34506,0.16614 -1.0224,0.26838 -0.66455,0.115019 -1.20131,0.115019 -4.06403,0 -4.06403,-4.281289 l 0,-8.332538 -2.00646,0 0,-1.022397 2.00646,-0.881818 0.89459,-2.990512 1.22688,0 0,3.246111 4.06403,0 0,1.648616 -4.06403,0 0,8.243079 q 0,1.265216 0.60066,1.942554 0.60066,0.677339 1.64862,0.677339 z"
         style="font-style:normal;font-variant:normal;font-weight:normal;font-stretch:normal;font-family:'Open Sans';-inkscape-font-specification:'Open Sans';text-align:center;text-anchor:middle;fill:#ffffff"
         id="path5212" />
      <path
         d="m 128.96413,77.591797 -2.56877,-8.217519 q -0.24282,-0.754018 -0.90738,-3.425031 l -0.10224,0 q -0.51119,2.236494 -0.89459,3.450591 l -2.64546,8.191959 -2.45375,0 -3.82121,-14.006844 2.22371,0 q 1.35468,5.278126 2.05758,8.038599 0.71568,2.760473 0.81792,3.718971 l 0.10224,0 q 0.14058,-0.728458 0.44729,-1.878655 0.3195,-1.162977 0.54954,-1.840316 l 2.56878,-8.038599 2.30039,0 2.50487,8.038599 q 0.71568,2.198155 0.97128,3.693411 l 0.10224,0 q 0.0511,-0.460079 0.26838,-1.418577 0.23004,-0.958497 2.67101,-10.313433 l 2.19816,0 -3.87233,14.006844 -2.51766,0 z"
         style="font-style:normal;font-variant:normal;font-weight:normal;font-stretch:normal;font-family:'Open Sans';-inkscape-font-specification:'Open Sans';text-align:center;text-anchor:middle;fill:#ffffff"
         id="path5214" />
      <path
         d="m 146.48547,77.591797 -0.42174,-1.993675 -0.10224,0 q -1.04796,1.316337 -2.09591,1.789195 -1.03518,0.460079 -2.59434,0.460079 -2.08313,0 -3.27167,-1.073517 -1.17576,-1.073517 -1.17576,-3.054412 0,-4.242949 6.78617,-4.447429 l 2.37707,-0.07668 0,-0.869038 q 0,-1.648616 -0.71568,-2.428194 -0.7029,-0.792358 -2.26205,-0.792358 -1.75086,0 -3.96179,1.073517 l -0.65178,-1.623055 q 1.03518,-0.562319 2.26205,-0.881818 1.23966,-0.319499 2.47932,-0.319499 2.50487,0 3.70619,1.111857 1.21409,1.111857 1.21409,3.565611 l 0,9.559415 -1.57193,0 z m -4.79249,-1.495256 q 1.9809,0 3.10553,-1.086297 1.13742,-1.086298 1.13742,-3.041633 l 0,-1.265216 -2.12147,0.08946 q -2.53044,0.08946 -3.65507,0.792358 -1.11186,0.690119 -1.11186,2.159815 0,1.150197 0.69012,1.750855 0.70289,0.600659 1.95533,0.600659 z"
         style="font-style:normal;font-variant:normal;font-weight:normal;font-stretch:normal;font-family:'Open Sans';-inkscape-font-specification:'Open Sans';text-align:center;text-anchor:middle;fill:#ffffff"
         id="path5216" />
      <path
         d="m 158.83092,63.329354 q 0.93293,0 1.67417,0.153359 l -0.29394,1.968115 q -0.86904,-0.191699 -1.53359,-0.191699 -1.69974,0 -2.91384,1.380236 -1.20131,1.380237 -1.20131,3.437811 l 0,7.514621 -2.12148,0 0,-14.006844 1.75086,0 0.24282,2.594333 0.10224,0 q 0.77957,-1.367456 1.87865,-2.108694 1.09908,-0.741238 2.41542,-0.741238 z"
         style="font-style:normal;font-variant:normal;font-weight:normal;font-stretch:normal;font-family:'Open Sans';-inkscape-font-specification:'Open Sans';text-align:center;text-anchor:middle;fill:#ffffff"
         id="path5218" />
      <path
         d="m 169.04211,77.847396 q -3.10553,0 -4.90751,-1.891435 -1.78919,-1.891435 -1.78919,-5.252566 0,-3.386692 1.66139,-5.380366 1.67418,-1.993675 4.48577,-1.993675 2.63267,0 4.16627,1.738075 1.53359,1.725296 1.53359,4.562448 l 0,1.341897 -9.64887,0 q 0.0639,2.466534 1.23966,3.74453 1.18853,1.277997 3.33557,1.277997 2.26205,0 4.47299,-0.945718 l 0,1.891436 q -1.12464,0.485638 -2.13426,0.690118 -0.99684,0.217259 -2.41541,0.217259 z m -0.5751,-12.741627 q -1.68696,0 -2.69657,1.099077 -0.99684,1.099077 -1.17576,3.041632 l 7.32292,0 q 0,-2.006454 -0.8946,-3.067192 -0.89459,-1.073517 -2.55599,-1.073517 z"
         style="font-style:normal;font-variant:normal;font-weight:normal;font-stretch:normal;font-family:'Open Sans';-inkscape-font-specification:'Open Sans';text-align:center;text-anchor:middle;fill:#ffffff"
         id="path5220" />
    </g>
    <g
       transform="translate(178.74219,138.94143)"
       style="font-style:normal;font-weight:normal;font-size:26.17337227px;line-height:0%;font-family:sans-serif;letter-spacing:0px;word-spacing:0px;fill:#ffffff;fill-opacity:1;stroke:none;stroke-width:1px;stroke-linecap:butt;stroke-linejoin:miter;stroke-opacity:1"
       id="flowRoot4233-0">
      <path
         d="m 95.723439,67.802342 6.351641,0 0,9.086557 q -1.48247,0.472858 -3.01607,0.715678 -1.533596,0.242819 -3.552831,0.242819 -4.242949,0 -6.607243,-2.517653 -2.364294,-2.530434 -2.364294,-7.080102 0,-2.913832 1.162977,-5.099207 1.175757,-2.198154 3.373912,-3.348351 2.198154,-1.162977 5.150326,-1.162977 2.990513,0 5.572063,1.099077 l -0.84347,1.916995 q -2.530438,-1.073517 -4.869172,-1.073517 -3.412252,0 -5.329247,2.032015 -1.916995,2.032014 -1.916995,5.635965 0,3.78287 1.840316,5.738205 1.853095,1.955335 5.431486,1.955335 1.942555,0 3.79565,-0.447299 l 0,-5.750985 -4.179049,0 0,-1.942555 z"
         style="font-style:normal;font-variant:normal;font-weight:normal;font-stretch:normal;font-family:'Open Sans';-inkscape-font-specification:'Open Sans';text-align:center;text-anchor:middle;fill:#ffffff"
         id="path5223" />
      <path
         d="m 114.86783,77.591797 -0.42174,-1.993675 -0.10224,0 q -1.04796,1.316337 -2.09591,1.789195 -1.03518,0.460079 -2.59434,0.460079 -2.08313,0 -3.27167,-1.073517 -1.17576,-1.073517 -1.17576,-3.054412 0,-4.242949 6.78617,-4.447429 l 2.37707,-0.07668 0,-0.869038 q 0,-1.648616 -0.71568,-2.428194 -0.7029,-0.792358 -2.26205,-0.792358 -1.75086,0 -3.96179,1.073517 l -0.65178,-1.623055 q 1.03518,-0.562319 2.26205,-0.881818 1.23966,-0.319499 2.47932,-0.319499 2.50487,0 3.70619,1.111857 1.2141,1.111857 1.2141,3.565611 l 0,9.559415 -1.57194,0 z m -4.79249,-1.495256 q 1.9809,0 3.10553,-1.086297 1.13742,-1.086298 1.13742,-3.041633 l 0,-1.265216 -2.12147,0.08946 q -2.53044,0.08946 -3.65507,0.792358 -1.11186,0.690119 -1.11186,2.159815 0,1.150197 0.69012,1.750855 0.70289,0.600659 1.95533,0.600659 z"
         style="font-style:normal;font-variant:normal;font-weight:normal;font-stretch:normal;font-family:'Open Sans';-inkscape-font-specification:'Open Sans';text-align:center;text-anchor:middle;fill:#ffffff"
         id="path5225" />
      <path
         d="m 138.67691,77.591797 0,-9.112117 q 0,-1.674175 -0.71568,-2.504873 -0.71568,-0.843478 -2.22372,-0.843478 -1.98089,0 -2.92661,1.137417 -0.94572,1.137417 -0.94572,3.501711 l 0,7.82134 -2.12147,0 0,-9.112117 q 0,-1.674175 -0.71568,-2.504873 -0.71568,-0.843478 -2.23649,-0.843478 -1.99368,0 -2.92662,1.201317 -0.92015,1.188537 -0.92015,3.91067 l 0,7.348481 -2.12148,0 0,-14.006844 1.7253,0 0.34506,1.916995 0.10224,0 q 0.60065,-1.022397 1.68695,-1.597496 1.09908,-0.575098 2.45376,-0.575098 3.28445,0 4.29406,2.377074 l 0.10224,0 q 0.62622,-1.099078 1.81476,-1.738076 1.18854,-0.638998 2.70935,-0.638998 2.37708,0 3.55283,1.226877 1.18854,1.214096 1.18854,3.89789 l 0,9.137676 -2.12147,0 z"
         style="font-style:normal;font-variant:normal;font-weight:normal;font-stretch:normal;font-family:'Open Sans';-inkscape-font-specification:'Open Sans';text-align:center;text-anchor:middle;fill:#ffffff"
         id="path5227" />
      <path
         d="m 151.07348,77.847396 q -3.10553,0 -4.90751,-1.891435 -1.78919,-1.891435 -1.78919,-5.252566 0,-3.386692 1.66139,-5.380366 1.67418,-1.993675 4.48577,-1.993675 2.63267,0 4.16627,1.738075 1.53359,1.725296 1.53359,4.562448 l 0,1.341897 -9.64887,0 q 0.0639,2.466534 1.23966,3.74453 1.18853,1.277997 3.33557,1.277997 2.26205,0 4.47299,-0.945718 l 0,1.891436 q -1.12464,0.485638 -2.13426,0.690118 -0.99684,0.217259 -2.41541,0.217259 z m -0.5751,-12.741627 q -1.68696,0 -2.69657,1.099077 -0.99684,1.099077 -1.17576,3.041632 l 7.32292,0 q 0,-2.006454 -0.8946,-3.067192 -0.89459,-1.073517 -2.55599,-1.073517 z"
         style="font-style:normal;font-variant:normal;font-weight:normal;font-stretch:normal;font-family:'Open Sans';-inkscape-font-specification:'Open Sans';text-align:center;text-anchor:middle;fill:#ffffff"
         id="path5229" />
    </g>
    <g
       transform="translate(383.02789,138.94143)"
       style="font-style:normal;font-weight:normal;font-size:26.17337227px;line-height:0%;font-family:sans-serif;letter-spacing:0px;word-spacing:0px;fill:#ffffff;fill-opacity:1;stroke:none;stroke-width:1px;stroke-linecap:butt;stroke-linejoin:miter;stroke-opacity:1"
       id="flowRoot4233-8">
      <path
         d="m 95.16112,77.591797 -6.338864,-16.562837 -0.102239,0 q 0.178919,1.968115 0.178919,4.677468 l 0,11.885369 -2.006455,0 0,-18.684312 3.271672,0 5.917125,15.41264 0.102239,0 5.968243,-15.41264 3.24611,0 0,18.684312 -2.17259,0 0,-12.038729 q 0,-2.070355 0.17892,-4.498548 l -0.10224,0 -6.389984,16.537277 -1.750856,0 z"
         style="font-style:normal;font-variant:normal;font-weight:normal;font-stretch:normal;font-family:'Open Sans';-inkscape-font-specification:'Open Sans';text-align:center;text-anchor:middle;fill:#ffffff"
         id="path5195" />
      <path
         d="m 122.28021,70.575595 q 0,3.425031 -1.7253,5.354806 -1.72529,1.916995 -4.76692,1.916995 -1.87866,0 -3.33558,-0.881818 -1.45691,-0.881817 -2.24927,-2.530433 -0.79236,-1.648616 -0.79236,-3.85955 0,-3.425031 1.71252,-5.329246 1.71251,-1.916995 4.75415,-1.916995 2.93939,0 4.66468,1.955335 1.73808,1.955335 1.73808,5.290906 z m -10.67127,0 q 0,2.683793 1.07351,4.089589 1.07352,1.405797 3.15666,1.405797 2.08313,0 3.15665,-1.393017 1.08629,-1.405796 1.08629,-4.102369 0,-2.671013 -1.08629,-4.051249 -1.07352,-1.393017 -3.18221,-1.393017 -2.08314,0 -3.14388,1.367457 -1.06073,1.367456 -1.06073,4.076809 z"
         style="font-style:normal;font-variant:normal;font-weight:normal;font-stretch:normal;font-family:'Open Sans';-inkscape-font-specification:'Open Sans';text-align:center;text-anchor:middle;fill:#ffffff"
         id="path5197" />
      <path
         d="m 129.05359,77.591797 -5.31646,-14.006844 2.27483,0 3.01607,8.306979 q 1.0224,2.913832 1.20132,3.78287 l 0.10224,0 q 0.14058,-0.677338 0.88182,-2.798813 0.75401,-2.134254 3.36113,-9.291036 l 2.27483,0 -5.31646,14.006844 -2.47932,0 z"
         style="font-style:normal;font-variant:normal;font-weight:normal;font-stretch:normal;font-family:'Open Sans';-inkscape-font-specification:'Open Sans';text-align:center;text-anchor:middle;fill:#ffffff"
         id="path5199" />
      <path
         d="m 141.24568,77.591797 -2.12147,0 0,-14.006844 2.12147,0 0,14.006844 z m -2.30039,-17.802494 q 0,-0.728458 0.35784,-1.060737 0.35783,-0.345059 0.89459,-0.345059 0.5112,0 0.88182,0.345059 0.37062,0.345059 0.37062,1.060737 0,0.715678 -0.37062,1.073517 -0.37062,0.345059 -0.88182,0.345059 -0.53676,0 -0.89459,-0.345059 -0.35784,-0.357839 -0.35784,-1.073517 z"
         style="font-style:normal;font-variant:normal;font-weight:normal;font-stretch:normal;font-family:'Open Sans';-inkscape-font-specification:'Open Sans';text-align:center;text-anchor:middle;fill:#ffffff"
         id="path5201" />
      <path
         d="m 151.68691,77.847396 q -3.10553,0 -4.9075,-1.891435 -1.7892,-1.891435 -1.7892,-5.252566 0,-3.386692 1.6614,-5.380366 1.67417,-1.993675 4.48577,-1.993675 2.63267,0 4.16627,1.738075 1.53359,1.725296 1.53359,4.562448 l 0,1.341897 -9.64887,0 q 0.0639,2.466534 1.23965,3.74453 1.18854,1.277997 3.33557,1.277997 2.26206,0 4.47299,-0.945718 l 0,1.891436 q -1.12463,0.485638 -2.13425,0.690118 -0.99684,0.217259 -2.41542,0.217259 z m -0.57509,-12.741627 q -1.68696,0 -2.69658,1.099077 -0.99683,1.099077 -1.17575,3.041632 l 7.32292,0 q 0,-2.006454 -0.8946,-3.067192 -0.8946,-1.073517 -2.55599,-1.073517 z"
         style="font-style:normal;font-variant:normal;font-weight:normal;font-stretch:normal;font-family:'Open Sans';-inkscape-font-specification:'Open Sans';text-align:center;text-anchor:middle;fill:#ffffff"
         id="path5203" />
    </g>
  </g>
</svg>
