<?xml version="1.0" encoding="UTF-8" standalone="no"?>
<!-- Created with Inkscape (http://www.inkscape.org/) -->

<svg
   xmlns:dc="http://purl.org/dc/elements/1.1/"
   xmlns:cc="http://creativecommons.org/ns#"
   xmlns:rdf="http://www.w3.org/1999/02/22-rdf-syntax-ns#"
   xmlns:svg="http://www.w3.org/2000/svg"
   xmlns="http://www.w3.org/2000/svg"
   xmlns:sodipodi="http://sodipodi.sourceforge.net/DTD/sodipodi-0.dtd"
   xmlns:inkscape="http://www.inkscape.org/namespaces/inkscape"
   width="50.800236mm"
   height="50.800236mm"
   viewBox="0 0 180.00083 180.00083"
   id="svg7401"
   version="1.1"
   inkscape:version="0.91 r13725"
   sodipodi:docname="text_mat.svg">
  <defs
     id="defs7403">
    <clipPath
       clipPathUnits="userSpaceOnUse"
       id="clipPath892">
      <path
         d="M 0,936 612,936 612,0 0,0 0,936 Z"
         id="path894"
         inkscape:connector-curvature="0" />
    </clipPath>
    <clipPath
       clipPathUnits="userSpaceOnUse"
       id="clipPath8555">
      <path
         style="fill:#4d4d4d;fill-rule:evenodd;stroke:#000000;stroke-width:1px;stroke-linecap:butt;stroke-linejoin:miter;stroke-opacity:1"
         d="M 473.26218,234.15758 681.3536,427.09671 c 0,0 -219.2031,7.07107 -221.22341,1.01015 -2.0203,-6.06091 13.13199,-193.94928 13.13199,-193.94928 z"
         id="path8557"
         inkscape:connector-curvature="0" />
    </clipPath>
  </defs>
  <sodipodi:namedview
     id="base"
     pagecolor="#ffffff"
     bordercolor="#666666"
     borderopacity="1.0"
     inkscape:pageopacity="0.0"
     inkscape:pageshadow="2"
     inkscape:zoom="0.35"
     inkscape:cx="-244.26038"
     inkscape:cy="80.105203"
     inkscape:document-units="px"
     inkscape:current-layer="layer1"
     showgrid="false"
     fit-margin-top="0"
     fit-margin-left="0"
     fit-margin-right="0"
     fit-margin-bottom="0"
     inkscape:window-width="1301"
     inkscape:window-height="744"
     inkscape:window-x="65"
     inkscape:window-y="24"
     inkscape:window-maximized="1"
     inkscape:snap-bbox="true"
     inkscape:bbox-nodes="true"
     inkscape:bbox-paths="true"
     inkscape:snap-bbox-edge-midpoints="true"
     inkscape:snap-bbox-midpoints="true"
     inkscape:object-paths="true"
     inkscape:snap-intersection-paths="true"
     inkscape:object-nodes="true"
     inkscape:snap-smooth-nodes="true"
     inkscape:snap-midpoints="true"
     inkscape:snap-object-midpoints="true"
     inkscape:snap-global="false" />
  <metadata
     id="metadata7406">
    <rdf:RDF>
      <cc:Work
         rdf:about="">
        <dc:format>image/svg+xml</dc:format>
        <dc:type
           rdf:resource="http://purl.org/dc/dcmitype/StillImage" />
        <dc:title></dc:title>
      </cc:Work>
    </rdf:RDF>
  </metadata>
  <g
     inkscape:label="Layer 1"
     inkscape:groupmode="layer"
     id="layer1"
     transform="translate(-178.76061,-231.65322)">
    <g
       id="g8559"
       transform="matrix(1.2115373,0,0,1.2115373,-404.9684,-57.496347)">
      <circle
         r="72.995735"
         cy="312.94949"
         cx="556.09467"
         id="path8177"
         style="opacity:1;fill:none;fill-opacity:1;stroke:#ffffff;stroke-width:2.58078885;stroke-linecap:round;stroke-linejoin:round;stroke-miterlimit:4;stroke-dasharray:none;stroke-dashoffset:0;stroke-opacity:1" />
      <path
         inkscape:connector-curvature="0"
         id="rect8175"
         d="m 556.09412,247.37719 0,15.52379 18.6082,0 0,-12.79204 a 65.572264,65.572264 0 0 0 -18.6082,-2.73175 z m 18.6082,15.52379 0,16.68176 18.6082,0 0,-16.68176 -18.6082,0 z m 18.6082,0 5.13717,0 a 65.572264,65.572264 0 0 0 -5.13717,-3.92481 l 0,3.92481 z m 0,16.68176 0,16.68352 18.60645,0 0,-16.68352 -18.60645,0 z m 18.60645,0 0.53688,0 a 65.572264,65.572264 0 0 0 -0.53688,-0.9369 l 0,0.9369 z m 0,16.68352 0,16.68351 9.74973,0 a 65.572264,65.572264 0 0 0 -2.19663,-16.68351 l -7.5531,0 z m 0,16.68351 -18.60645,0 0,16.68177 18.60645,0 0,-16.68177 z m 0,16.68177 0,16.68351 0.54038,0 a 65.572264,65.572264 0 0 0 6.96886,-16.68351 l -7.50924,0 z m 0,16.68351 -18.60645,0 0,16.68176 5.04418,0 a 65.572264,65.572264 0 0 0 13.56227,-15.801 l 0,-0.88076 z m -18.60645,16.68176 -18.6082,0 0,12.78151 a 65.572264,65.572264 0 0 0 18.6082,-8.93039 l 0,-3.85112 z m -18.6082,0 0,-16.68176 -18.6082,0 0,16.68176 18.6082,0 z m -18.6082,0 -18.60645,0 0,12.79204 a 65.572264,65.572264 0 0 0 18.60645,2.73351 l 0,-15.52555 z m -18.60645,0 0,-16.68176 -18.60819,0 0,16.68176 18.60819,0 z m -18.60819,0 -5.14068,0 a 65.572264,65.572264 0 0 0 5.14068,3.92832 l 0,-3.92832 z m 0,-16.68176 0,-16.68351 -18.60821,0 0,16.68351 18.60821,0 z m -18.60821,0 -0.53863,0 a 65.572264,65.572264 0 0 0 0.53863,0.9369 l 0,-0.9369 z m 0,-16.68351 0,-16.68177 -9.74973,0 a 65.572264,65.572264 0 0 0 2.19663,16.68177 l 7.5531,0 z m 0,-16.68177 18.60821,0 0,-16.68351 -18.60821,0 0,16.68351 z m 0,-16.68351 0,-16.68352 -0.53863,0 a 65.572264,65.572264 0 0 0 -6.96886,16.68352 l 7.50749,0 z m 0,-16.68352 18.60821,0 0,-16.68176 -5.04243,0 a 65.572264,65.572264 0 0 0 -13.56578,15.80276 l 0,0.879 z m 18.60821,-16.68176 18.60819,0 0,-12.77976 a 65.572264,65.572264 0 0 0 -18.60819,8.92864 l 0,3.85112 z m 18.60819,0 0,16.68176 18.60645,0 0,-16.68176 -18.60645,0 z m 18.60645,16.68176 0,16.68352 18.6082,0 0,-16.68352 -18.6082,0 z m 18.6082,16.68352 0,16.68351 18.6082,0 0,-16.68351 -18.6082,0 z m 0,16.68351 -18.6082,0 0,16.68177 18.6082,0 0,-16.68177 z m 0,16.68177 0,16.68351 18.6082,0 0,-16.68351 -18.6082,0 z m -18.6082,0 -18.60645,0 0,16.68351 18.60645,0 0,-16.68351 z m -18.60645,0 0,-16.68177 -18.60819,0 0,16.68177 18.60819,0 z m 0,-16.68177 18.60645,0 0,-16.68351 -18.60645,0 0,16.68351 z m 0,-16.68351 0,-16.68352 -18.60819,0 0,16.68352 18.60819,0 z"
         style="opacity:0.5;fill:#ffffff;fill-opacity:1;stroke:none;stroke-width:5;stroke-linecap:round;stroke-linejoin:round;stroke-miterlimit:4;stroke-dasharray:none;stroke-dashoffset:0;stroke-opacity:1" />
      <path
         clip-path="url(#clipPath8555)"
         inkscape:connector-curvature="0"
         id="rect8175-9"
         d="m 556.09412,247.37719 0,15.52379 18.6082,0 0,-12.79204 a 65.572264,65.572264 0 0 0 -18.6082,-2.73175 z m 18.6082,15.52379 0,16.68176 18.6082,0 0,-16.68176 -18.6082,0 z m 18.6082,0 5.13717,0 a 65.572264,65.572264 0 0 0 -5.13717,-3.92481 l 0,3.92481 z m 0,16.68176 0,16.68352 18.60645,0 0,-16.68352 -18.60645,0 z m 18.60645,0 0.53688,0 a 65.572264,65.572264 0 0 0 -0.53688,-0.9369 l 0,0.9369 z m 0,16.68352 0,16.68351 9.74973,0 a 65.572264,65.572264 0 0 0 -2.19663,-16.68351 l -7.5531,0 z m 0,16.68351 -18.60645,0 0,16.68177 18.60645,0 0,-16.68177 z m 0,16.68177 0,16.68351 0.54038,0 a 65.572264,65.572264 0 0 0 6.96886,-16.68351 l -7.50924,0 z m 0,16.68351 -18.60645,0 0,16.68176 5.04418,0 a 65.572264,65.572264 0 0 0 13.56227,-15.801 l 0,-0.88076 z m -18.60645,16.68176 -18.6082,0 0,12.78151 a 65.572264,65.572264 0 0 0 18.6082,-8.93039 l 0,-3.85112 z m -18.6082,0 0,-16.68176 -18.6082,0 0,16.68176 18.6082,0 z m -18.6082,0 -18.60645,0 0,12.79204 a 65.572264,65.572264 0 0 0 18.60645,2.73351 l 0,-15.52555 z m -18.60645,0 0,-16.68176 -18.60819,0 0,16.68176 18.60819,0 z m -18.60819,0 -5.14068,0 a 65.572264,65.572264 0 0 0 5.14068,3.92832 l 0,-3.92832 z m 0,-16.68176 0,-16.68351 -18.60821,0 0,16.68351 18.60821,0 z m -18.60821,0 -0.53863,0 a 65.572264,65.572264 0 0 0 0.53863,0.9369 l 0,-0.9369 z m 0,-16.68351 0,-16.68177 -9.74973,0 a 65.572264,65.572264 0 0 0 2.19663,16.68177 l 7.5531,0 z m 0,-16.68177 18.60821,0 0,-16.68351 -18.60821,0 0,16.68351 z m 0,-16.68351 0,-16.68352 -0.53863,0 a 65.572264,65.572264 0 0 0 -6.96886,16.68352 l 7.50749,0 z m 0,-16.68352 18.60821,0 0,-16.68176 -5.04243,0 a 65.572264,65.572264 0 0 0 -13.56578,15.80276 l 0,0.879 z m 18.60821,-16.68176 18.60819,0 0,-12.77976 a 65.572264,65.572264 0 0 0 -18.60819,8.92864 l 0,3.85112 z m 18.60819,0 0,16.68176 18.60645,0 0,-16.68176 -18.60645,0 z m 18.60645,16.68176 0,16.68352 18.6082,0 0,-16.68352 -18.6082,0 z m 18.6082,16.68352 0,16.68351 18.6082,0 0,-16.68351 -18.6082,0 z m 0,16.68351 -18.6082,0 0,16.68177 18.6082,0 0,-16.68177 z m 0,16.68177 0,16.68351 18.6082,0 0,-16.68351 -18.6082,0 z m -18.6082,0 -18.60645,0 0,16.68351 18.60645,0 0,-16.68351 z m -18.60645,0 0,-16.68177 -18.60819,0 0,16.68177 18.60819,0 z m 0,-16.68177 18.60645,0 0,-16.68351 -18.60645,0 0,16.68351 z m 0,-16.68351 0,-16.68352 -18.60819,0 0,16.68352 18.60819,0 z"
         style="opacity:1;fill:#ffffff;fill-opacity:1;stroke:none;stroke-width:5;stroke-linecap:round;stroke-linejoin:round;stroke-miterlimit:4;stroke-dasharray:none;stroke-dashoffset:0;stroke-opacity:1" />
    </g>
  </g>
</svg>
